<?xml version="1.0" encoding="UTF-8"?>
<svg xmlns="http://www.w3.org/2000/svg" xmlns:xlink="http://www.w3.org/1999/xlink" width="730pt" height="526pt" viewBox="0 0 730 526" version="1.1">
<defs>
<filter id="alpha" filterUnits="objectBoundingBox" x="0%" y="0%" width="100%" height="100%">
  <feColorMatrix type="matrix" in="SourceGraphic" values="0 0 0 0 1 0 0 0 0 1 0 0 0 0 1 0 0 0 1 0"/>
</filter>
<mask id="mask0">
  <g filter="url(#alpha)">
<rect x="0" y="0" width="730" height="526" style="fill:rgb(0%,0%,0%);fill-opacity:0.0313725;stroke:none;"/>
  </g>
</mask>
<clipPath id="clip1">
  <rect width="730" height="526"/>
</clipPath>
<g id="surface6" clip-path="url(#clip1)">
<path style=" stroke:none;fill-rule:nonzero;fill:rgb(0%,0%,0%);fill-opacity:1;" d="M 169.921875 55.660156 C 165.691406 54.855469 161.316406 55.332031 157.355469 57.027344 C 152.554688 59.171875 147.066406 59.171875 142.265625 57.027344 C 136.730469 54.574219 129.796875 54.625 124.511719 57.378906 C 122.9375 58.210938 121.183594 58.648438 119.402344 58.65625 C 112.207031 58.65625 106.21875 51.398438 104.972656 41.824219 C 106.410156 40.773438 107.628906 39.457031 108.570312 37.945312 C 112.789062 31.09375 119.3125 26.71875 126.664062 26.71875 C 134.015625 26.71875 140.453125 31.035156 144.652344 37.773438 C 147.207031 41.914062 151.746094 44.40625 156.605469 44.347656 L 156.792969 44.347656 C 162.546875 44.355469 167.511719 48.953125 169.921875 55.660156 Z M 169.921875 55.660156 "/>
</g>
<mask id="mask1">
  <g filter="url(#alpha)">
<rect x="0" y="0" width="730" height="526" style="fill:rgb(0%,0%,0%);fill-opacity:0.0313725;stroke:none;"/>
  </g>
</mask>
<clipPath id="clip2">
  <rect width="730" height="526"/>
</clipPath>
<g id="surface9" clip-path="url(#clip2)">
<path style=" stroke:none;fill-rule:nonzero;fill:rgb(0%,0%,0%);fill-opacity:1;" d="M 578.125 169.363281 C 576.011719 168.964844 573.828125 169.203125 571.851562 170.046875 C 570.671875 170.570312 569.394531 170.84375 568.101562 170.839844 C 566.8125 170.835938 565.535156 170.558594 564.355469 170.03125 C 561.519531 168.785156 558.28125 168.847656 555.496094 170.203125 C 554.710938 170.621094 553.835938 170.839844 552.949219 170.839844 C 549.359375 170.839844 546.375 167.222656 545.753906 162.445312 C 546.472656 161.921875 547.082031 161.261719 547.550781 160.507812 C 549.652344 157.117188 552.910156 154.933594 556.546875 154.933594 C 560.179688 154.933594 563.425781 157.085938 565.539062 160.449219 C 566.820312 162.523438 569.101562 163.769531 571.535156 163.726562 L 571.632812 163.726562 C 574.445312 163.726562 576.917969 166.023438 578.125 169.363281 Z M 578.125 169.363281 "/>
</g>
<mask id="mask2">
  <g filter="url(#alpha)">
<rect x="0" y="0" width="730" height="526" style="fill:rgb(0%,0%,0%);fill-opacity:0.101961;stroke:none;"/>
  </g>
</mask>
<clipPath id="clip3">
  <rect width="730" height="526"/>
</clipPath>
<g id="surface12" clip-path="url(#clip3)">
<path style=" stroke:none;fill-rule:nonzero;fill:rgb(0%,0%,0%);fill-opacity:1;" d="M 730.285156 498.957031 L 730.285156 502.707031 C 730.277344 506.742188 728.574219 510.585938 725.589844 513.300781 C 722.609375 516.011719 718.625 517.34375 714.613281 516.964844 C 685.269531 514.175781 656.0625 508.980469 626.625 509.882812 C 572.34375 511.539062 517.617188 533.765625 465.078125 520.035156 C 450.261719 516.164062 435.609375 509.433594 420.363281 510.878906 C 406.6875 512.179688 394.515625 519.921875 381.265625 523.554688 C 340.964844 534.628906 299.9375 506.640625 258.152344 507.765625 C 230.617188 508.515625 204.25 521.941406 176.742188 520.449219 C 160.800781 519.59375 145.617188 513.753906 130.066406 510.160156 C 91.347656 501.199219 51.476562 506.214844 11.578125 509.320312 C 8.671875 509.542969 5.800781 508.542969 3.65625 506.5625 C 1.515625 504.582031 0.292969 501.796875 0.285156 498.875 L 0.285156 495.691406 C 0.285156 489.890625 4.984375 485.1875 10.777344 485.1875 L 715.984375 484.617188 C 723.882812 484.632812 730.28125 491.046875 730.285156 498.957031 Z M 730.285156 498.957031 "/>
</g>
<mask id="mask3">
  <g filter="url(#alpha)">
<rect x="0" y="0" width="730" height="526" style="fill:rgb(0%,0%,0%);fill-opacity:0.101961;stroke:none;"/>
  </g>
</mask>
<clipPath id="clip4">
  <rect width="730" height="526"/>
</clipPath>
<g id="surface15" clip-path="url(#clip4)">
<path style=" stroke:none;fill-rule:nonzero;fill:rgb(0%,0%,0%);fill-opacity:1;" d="M 694.023438 392.496094 C 691.597656 392.765625 689.234375 393.523438 686.800781 393.675781 C 684.363281 393.824219 681.6875 393.238281 680.144531 391.339844 C 679.320312 390.320312 678.898438 389.03125 678.203125 387.910156 C 677.535156 386.875 676.625 386.019531 675.550781 385.421875 C 673.8125 389.046875 674.296875 393.34375 676.792969 396.492188 C 679.289062 399.640625 683.359375 401.085938 687.28125 400.21875 C 691.199219 399.347656 694.28125 396.316406 695.214844 392.40625 C 694.820312 392.429688 694.421875 392.453125 694.023438 392.496094 Z M 694.023438 392.496094 "/>
</g>
<mask id="mask4">
  <g filter="url(#alpha)">
<rect x="0" y="0" width="730" height="526" style="fill:rgb(0%,0%,0%);fill-opacity:0.101961;stroke:none;"/>
  </g>
</mask>
<clipPath id="clip5">
  <rect width="730" height="526"/>
</clipPath>
<g id="surface18" clip-path="url(#clip5)">
<path style=" stroke:none;fill-rule:nonzero;fill:rgb(0%,0%,0%);fill-opacity:1;" d="M 697.023438 423.507812 C 693.332031 423.695312 689.816406 421.925781 687.765625 418.847656 C 685.710938 415.773438 685.429688 411.84375 687.015625 408.5 C 687.851562 409.0625 688.570312 409.785156 689.128906 410.625 C 689.878906 411.757812 690.335938 413.0625 691.214844 414.097656 C 692.855469 416.035156 695.652344 416.664062 698.191406 416.546875 C 700.734375 416.425781 703.183594 415.710938 705.6875 415.480469 C 706.039062 415.441406 706.390625 415.421875 706.75 415.414062 C 705.679688 419.984375 701.707031 423.289062 697.023438 423.507812 Z M 697.023438 423.507812 "/>
</g>
<mask id="mask5">
  <g filter="url(#alpha)">
<rect x="0" y="0" width="730" height="526" style="fill:rgb(0%,0%,0%);fill-opacity:0.101961;stroke:none;"/>
  </g>
</mask>
<clipPath id="clip6">
  <rect width="730" height="526"/>
</clipPath>
<g id="surface21" clip-path="url(#clip6)">
<path style=" stroke:none;fill-rule:nonzero;fill:rgb(0%,0%,0%);fill-opacity:1;" d="M 671.488281 440.527344 C 667.832031 440.714844 664.339844 438.980469 662.28125 435.953125 C 660.21875 432.925781 659.882812 429.039062 661.390625 425.699219 C 662.269531 426.265625 663.03125 426.988281 663.640625 427.839844 C 664.457031 428.992188 664.96875 430.320312 665.890625 431.386719 C 667.664062 433.367188 670.648438 434.058594 673.332031 434 C 676.015625 433.9375 678.449219 433.300781 681.035156 433.105469 C 679.730469 437.34375 675.914062 440.3125 671.488281 440.527344 Z M 671.488281 440.527344 "/>
</g>
<mask id="mask6">
  <g filter="url(#alpha)">
<rect x="0" y="0" width="730" height="526" style="fill:rgb(0%,0%,0%);fill-opacity:0.101961;stroke:none;"/>
  </g>
</mask>
<clipPath id="clip7">
  <rect width="730" height="526"/>
</clipPath>
<g id="surface24" clip-path="url(#clip7)">
<path style=" stroke:none;fill-rule:nonzero;fill:rgb(0%,0%,0%);fill-opacity:1;" d="M 676.679688 460.964844 C 674.3125 466.269531 668.097656 468.644531 662.800781 466.273438 C 657.503906 463.898438 655.132812 457.675781 657.503906 452.375 C 658.367188 452.945312 659.148438 453.640625 659.8125 454.4375 C 660.816406 455.660156 661.472656 457.042969 662.628906 458.191406 C 664.78125 460.296875 668.25 461.191406 671.34375 461.25 C 673.128906 461.261719 674.910156 461.167969 676.679688 460.964844 Z M 676.679688 460.964844 "/>
</g>
<mask id="mask7">
  <g filter="url(#alpha)">
<rect x="0" y="0" width="730" height="526" style="fill:rgb(0%,0%,0%);fill-opacity:0.2;stroke:none;"/>
  </g>
</mask>
<clipPath id="clip8">
  <rect width="730" height="526"/>
</clipPath>
<g id="surface27" clip-path="url(#clip8)">
<path style=" stroke:none;fill-rule:nonzero;fill:rgb(0%,0%,0%);fill-opacity:1;" d="M 677.878906 486.6875 C 668.503906 486.765625 656.101562 485.226562 653.605469 483.6875 C 651.699219 482.53125 650.945312 478.367188 650.6875 476.445312 L 650.410156 476.445312 C 650.410156 476.445312 650.9375 483.148438 653.410156 484.699219 C 655.882812 486.253906 668.316406 487.761719 677.6875 487.703125 C 680.390625 487.703125 681.328125 486.710938 681.277344 485.285156 C 680.921875 486.15625 679.925781 486.6875 677.878906 486.6875 Z M 677.878906 486.6875 "/>
</g>
<mask id="mask8">
  <g filter="url(#alpha)">
<rect x="0" y="0" width="730" height="526" style="fill:rgb(0%,0%,0%);fill-opacity:0.101961;stroke:none;"/>
  </g>
</mask>
<clipPath id="clip9">
  <rect width="730" height="526"/>
</clipPath>
<g id="surface30" clip-path="url(#clip9)">
<path style=" stroke:none;fill-rule:nonzero;fill:rgb(0%,0%,0%);fill-opacity:1;" d="M 309.359375 370.015625 C 309.996094 374.5625 310.8125 379.132812 310.59375 383.71875 C 310.289062 390.117188 307.988281 396.292969 307.558594 402.6875 C 307.238281 407.464844 307.980469 412.296875 307.3125 417.039062 C 306.886719 420.042969 305.902344 423 305.289062 426.046875 C 303.34375 435.921875 305.492188 446.164062 311.238281 454.421875 C 311.65625 455.125 312.25 455.707031 312.964844 456.105469 C 313.648438 456.355469 314.378906 456.453125 315.105469 456.390625 C 322.304688 456.238281 329.488281 455.582031 336.59375 454.421875 C 337.007812 454.472656 337.425781 454.347656 337.746094 454.078125 C 338.0625 453.808594 338.253906 453.414062 338.273438 452.996094 C 339.59375 446.246094 336.585938 439.417969 335.824219 432.550781 C 335.003906 425.21875 336.757812 417.875 338.503906 410.699219 C 339.296875 407.164062 340.285156 403.679688 341.464844 400.253906 C 342.304688 397.945312 343.324219 395.707031 344.058594 393.359375 C 345.09375 389.6875 345.722656 385.914062 345.941406 382.105469 C 346.441406 376.101562 346.707031 370.0625 346.742188 363.984375 C 346.742188 358.25 346.578125 352.480469 345.324219 346.882812 C 343.722656 339.761719 340.4375 333.144531 337.179688 326.621094 C 335.417969 326.898438 333.882812 327.929688 332.390625 328.875 C 328.195312 331.589844 323.8125 334.011719 319.28125 336.121094 C 316.238281 337.53125 310.289062 338.539062 308.367188 341.496094 C 306.449219 344.453125 307.695312 350.335938 307.835938 353.546875 C 308.089844 359.0625 308.601562 364.5625 309.359375 370.015625 Z M 309.359375 370.015625 "/>
</g>
<mask id="mask9">
  <g filter="url(#alpha)">
<rect x="0" y="0" width="730" height="526" style="fill:rgb(0%,0%,0%);fill-opacity:0.101961;stroke:none;"/>
  </g>
</mask>
<clipPath id="clip10">
  <rect width="730" height="526"/>
</clipPath>
<g id="surface33" clip-path="url(#clip10)">
<path style=" stroke:none;fill-rule:nonzero;fill:rgb(0%,0%,0%);fill-opacity:1;" d="M 112.566406 260.769531 C 112.582031 273.410156 108.339844 285.679688 100.519531 295.601562 C 118.675781 318.695312 116.046875 351.882812 94.488281 371.824219 C 72.925781 391.765625 39.675781 391.765625 18.117188 371.824219 C -3.445312 351.882812 -6.070312 318.695312 12.082031 295.601562 C 4.503906 286.011719 112.566406 254.445312 112.566406 260.769531 Z M 112.566406 260.769531 "/>
</g>
</defs>
<g id="surface1">
<path style=" stroke:none;fill-rule:nonzero;fill:rgb(94.901961%,94.901961%,94.901961%);fill-opacity:1;" d="M 502.382812 207.554688 L 406.183594 207.554688 L 406.183594 186.742188 C 406.183594 183.988281 403.957031 181.757812 401.207031 181.757812 L 372.960938 181.757812 L 372.960938 159.570312 C 372.960938 157.839844 371.558594 156.433594 369.828125 156.433594 L 333.4375 156.433594 C 331.707031 156.433594 330.304688 157.839844 330.304688 159.570312 L 330.304688 181.757812 L 297.097656 181.757812 C 294.347656 181.757812 292.121094 183.988281 292.121094 186.742188 L 292.121094 207.554688 L 200.390625 207.554688 C 199.835938 207.558594 199.386719 208.011719 199.386719 208.570312 L 199.386719 485.105469 C 199.386719 485.660156 199.835938 486.113281 200.390625 486.117188 L 261.351562 486.117188 C 261.914062 486.117188 262.367188 485.664062 262.367188 485.105469 L 262.367188 447.902344 C 262.371094 447.34375 262.820312 446.894531 263.378906 446.890625 L 289.128906 446.890625 C 289.6875 446.894531 290.136719 447.34375 290.140625 447.902344 L 290.140625 485.105469 C 290.140625 485.660156 290.589844 486.113281 291.144531 486.117188 L 411.609375 486.117188 C 412.167969 486.113281 412.617188 485.664062 412.621094 485.105469 L 412.621094 447.902344 C 412.621094 447.347656 413.070312 446.894531 413.625 446.890625 L 439.378906 446.890625 C 439.9375 446.890625 440.390625 447.34375 440.390625 447.902344 L 440.390625 485.105469 C 440.394531 485.664062 440.84375 486.113281 441.402344 486.117188 L 502.367188 486.117188 C 502.921875 486.113281 503.375 485.664062 503.378906 485.105469 L 503.378906 208.585938 C 503.382812 208.027344 502.9375 207.570312 502.382812 207.554688 Z M 251.453125 433.96875 C 251.453125 434.523438 251.003906 434.972656 250.449219 434.972656 L 212.792969 434.972656 C 212.527344 434.976562 212.269531 434.871094 212.078125 434.683594 C 211.890625 434.492188 211.78125 434.238281 211.78125 433.96875 L 211.78125 421.09375 C 211.78125 420.53125 212.234375 420.078125 212.792969 420.078125 L 250.472656 420.078125 C 251.027344 420.082031 251.476562 420.535156 251.476562 421.09375 Z M 251.453125 400.699219 C 251.453125 400.964844 251.351562 401.222656 251.160156 401.414062 C 250.972656 401.605469 250.714844 401.710938 250.449219 401.710938 L 212.792969 401.710938 C 212.523438 401.714844 212.265625 401.605469 212.078125 401.417969 C 211.886719 401.226562 211.78125 400.96875 211.78125 400.699219 L 211.78125 387.828125 C 211.78125 387.558594 211.886719 387.300781 212.078125 387.109375 C 212.265625 386.921875 212.523438 386.8125 212.792969 386.816406 L 250.472656 386.816406 C 250.738281 386.816406 250.996094 386.921875 251.183594 387.113281 C 251.371094 387.304688 251.476562 387.5625 251.476562 387.828125 Z M 251.453125 367.433594 C 251.453125 367.992188 251.003906 368.445312 250.449219 368.449219 L 212.792969 368.449219 C 212.234375 368.449219 211.78125 367.992188 211.78125 367.433594 L 211.78125 354.558594 C 211.78125 354 212.234375 353.546875 212.792969 353.546875 L 250.472656 353.546875 C 251.027344 353.550781 251.476562 354.003906 251.476562 354.558594 Z M 251.453125 334.164062 C 251.453125 334.433594 251.351562 334.691406 251.160156 334.878906 C 250.972656 335.070312 250.714844 335.175781 250.449219 335.175781 L 212.792969 335.175781 C 212.523438 335.179688 212.265625 335.074219 212.078125 334.882812 C 211.886719 334.691406 211.78125 334.433594 211.78125 334.164062 L 211.78125 321.296875 C 211.78125 321.027344 211.886719 320.765625 212.078125 320.578125 C 212.265625 320.386719 212.523438 320.28125 212.792969 320.28125 L 250.472656 320.28125 C 250.738281 320.28125 250.996094 320.390625 251.183594 320.578125 C 251.371094 320.769531 251.476562 321.027344 251.476562 321.296875 Z M 251.453125 300.902344 C 251.453125 301.457031 251.003906 301.910156 250.449219 301.914062 L 212.792969 301.914062 C 212.234375 301.914062 211.78125 301.460938 211.78125 300.902344 L 211.78125 288.023438 C 211.78125 287.757812 211.890625 287.5 212.078125 287.3125 C 212.269531 287.121094 212.527344 287.015625 212.792969 287.019531 L 250.472656 287.019531 C 251.027344 287.019531 251.476562 287.46875 251.476562 288.023438 Z M 251.453125 267.636719 C 251.453125 268.191406 251.003906 268.644531 250.449219 268.644531 L 212.792969 268.644531 C 212.527344 268.644531 212.269531 268.539062 212.078125 268.351562 C 211.890625 268.160156 211.78125 267.90625 211.78125 267.636719 L 211.78125 254.761719 C 211.78125 254.203125 212.234375 253.75 212.792969 253.75 L 250.472656 253.75 C 251.027344 253.753906 251.476562 254.203125 251.476562 254.761719 Z M 251.453125 234.367188 C 251.453125 234.632812 251.351562 234.890625 251.160156 235.082031 C 250.972656 235.273438 250.714844 235.378906 250.449219 235.378906 L 212.792969 235.378906 C 212.523438 235.382812 212.265625 235.273438 212.078125 235.085938 C 211.886719 234.894531 211.78125 234.636719 211.78125 234.367188 L 211.78125 221.496094 C 211.78125 221.226562 211.886719 220.96875 212.078125 220.777344 C 212.265625 220.589844 212.523438 220.484375 212.792969 220.484375 L 250.472656 220.484375 C 250.738281 220.484375 250.996094 220.589844 251.183594 220.78125 C 251.371094 220.972656 251.476562 221.230469 251.476562 221.496094 Z M 340.722656 433.960938 C 340.722656 434.230469 340.617188 434.484375 340.425781 434.675781 C 340.238281 434.863281 339.980469 434.96875 339.710938 434.964844 L 302.058594 434.964844 C 301.503906 434.964844 301.050781 434.519531 301.046875 433.960938 L 301.046875 421.09375 C 301.050781 420.535156 301.5 420.082031 302.058594 420.078125 L 339.710938 420.078125 C 340.269531 420.078125 340.722656 420.53125 340.722656 421.09375 Z M 340.722656 400.691406 C 340.726562 400.960938 340.621094 401.21875 340.429688 401.410156 C 340.238281 401.597656 339.980469 401.707031 339.710938 401.703125 L 302.058594 401.703125 C 301.5 401.703125 301.046875 401.25 301.046875 400.691406 L 301.046875 387.828125 C 301.046875 387.269531 301.5 386.816406 302.058594 386.816406 L 339.710938 386.816406 C 339.980469 386.8125 340.238281 386.921875 340.429688 387.109375 C 340.621094 387.300781 340.726562 387.558594 340.722656 387.828125 Z M 340.722656 367.425781 C 340.722656 367.988281 340.269531 368.441406 339.710938 368.441406 L 302.058594 368.441406 C 301.5 368.4375 301.050781 367.984375 301.046875 367.425781 L 301.046875 354.558594 C 301.050781 354 301.5 353.550781 302.058594 353.546875 L 339.710938 353.546875 C 340.269531 353.546875 340.722656 354 340.722656 354.558594 Z M 340.722656 334.15625 C 340.726562 334.425781 340.621094 334.683594 340.429688 334.875 C 340.238281 335.066406 339.980469 335.171875 339.710938 335.167969 L 302.058594 335.167969 C 301.5 335.167969 301.046875 334.714844 301.046875 334.15625 L 301.046875 321.296875 C 301.046875 320.734375 301.5 320.28125 302.058594 320.28125 L 339.710938 320.28125 C 339.980469 320.28125 340.238281 320.386719 340.429688 320.578125 C 340.621094 320.765625 340.726562 321.027344 340.722656 321.296875 Z M 340.722656 300.894531 C 340.722656 301.453125 340.269531 301.90625 339.710938 301.90625 L 302.058594 301.90625 C 301.5 301.902344 301.050781 301.449219 301.046875 300.894531 L 301.046875 288.023438 C 301.050781 287.46875 301.503906 287.019531 302.058594 287.019531 L 339.710938 287.019531 C 339.980469 287.015625 340.238281 287.121094 340.425781 287.3125 C 340.617188 287.5 340.722656 287.757812 340.722656 288.023438 Z M 340.722656 267.628906 C 340.722656 267.898438 340.617188 268.15625 340.425781 268.34375 C 340.238281 268.53125 339.980469 268.636719 339.710938 268.636719 L 302.058594 268.636719 C 301.503906 268.636719 301.050781 268.1875 301.046875 267.628906 L 301.046875 254.761719 C 301.050781 254.203125 301.5 253.753906 302.058594 253.75 L 339.710938 253.75 C 340.269531 253.75 340.722656 254.203125 340.722656 254.761719 Z M 340.722656 234.359375 C 340.726562 234.628906 340.621094 234.886719 340.429688 235.078125 C 340.238281 235.269531 339.980469 235.375 339.710938 235.371094 L 302.058594 235.371094 C 301.5 235.371094 301.046875 234.917969 301.046875 234.359375 L 301.046875 221.496094 C 301.046875 220.9375 301.5 220.484375 302.058594 220.484375 L 339.710938 220.484375 C 339.980469 220.484375 340.238281 220.589844 340.429688 220.777344 C 340.621094 220.96875 340.726562 221.226562 340.722656 221.496094 Z M 401.726562 433.953125 C 401.726562 434.222656 401.617188 434.480469 401.429688 434.667969 C 401.238281 434.855469 400.980469 434.960938 400.714844 434.960938 L 363.058594 434.960938 C 362.503906 434.960938 362.050781 434.511719 362.046875 433.953125 L 362.046875 421.09375 C 362.050781 420.535156 362.5 420.082031 363.058594 420.078125 L 400.714844 420.078125 C 401.273438 420.078125 401.726562 420.53125 401.726562 421.09375 Z M 401.726562 400.683594 C 401.726562 400.953125 401.621094 401.210938 401.429688 401.402344 C 401.242188 401.59375 400.980469 401.699219 400.714844 401.695312 L 363.058594 401.695312 C 362.5 401.695312 362.046875 401.242188 362.046875 400.683594 L 362.046875 387.828125 C 362.046875 387.269531 362.5 386.816406 363.058594 386.816406 L 400.714844 386.816406 C 400.980469 386.8125 401.242188 386.921875 401.429688 387.109375 C 401.621094 387.300781 401.726562 387.558594 401.726562 387.828125 Z M 401.726562 367.417969 C 401.726562 367.980469 401.273438 368.433594 400.714844 368.433594 L 363.058594 368.433594 C 362.5 368.429688 362.050781 367.976562 362.046875 367.417969 L 362.046875 354.558594 C 362.050781 354 362.5 353.550781 363.058594 353.546875 L 400.714844 353.546875 C 401.273438 353.546875 401.726562 354 401.726562 354.558594 Z M 401.726562 334.148438 C 401.726562 334.417969 401.621094 334.675781 401.429688 334.867188 C 401.242188 335.058594 400.980469 335.164062 400.714844 335.160156 L 363.058594 335.160156 C 362.5 335.160156 362.046875 334.707031 362.046875 334.148438 L 362.046875 321.296875 C 362.046875 320.734375 362.5 320.28125 363.058594 320.28125 L 400.714844 320.28125 C 400.980469 320.28125 401.242188 320.386719 401.429688 320.578125 C 401.621094 320.765625 401.726562 321.027344 401.726562 321.296875 Z M 401.726562 300.886719 C 401.726562 301.445312 401.273438 301.898438 400.714844 301.898438 L 363.058594 301.898438 C 362.5 301.894531 362.050781 301.441406 362.046875 300.886719 L 362.046875 288.023438 C 362.050781 287.46875 362.503906 287.019531 363.058594 287.019531 L 400.714844 287.019531 C 400.980469 287.015625 401.238281 287.121094 401.429688 287.3125 C 401.617188 287.5 401.726562 287.757812 401.726562 288.023438 Z M 401.726562 267.621094 C 401.726562 267.890625 401.617188 268.148438 401.429688 268.335938 C 401.238281 268.523438 400.980469 268.628906 400.714844 268.628906 L 363.058594 268.628906 C 362.503906 268.628906 362.050781 268.179688 362.046875 267.621094 L 362.046875 254.761719 C 362.050781 254.203125 362.5 253.753906 363.058594 253.75 L 400.714844 253.75 C 401.273438 253.75 401.726562 254.203125 401.726562 254.761719 Z M 401.726562 234.351562 C 401.726562 234.621094 401.621094 234.878906 401.429688 235.070312 C 401.242188 235.261719 400.980469 235.367188 400.714844 235.363281 L 363.058594 235.363281 C 362.5 235.363281 362.046875 234.910156 362.046875 234.351562 L 362.046875 221.496094 C 362.046875 220.9375 362.5 220.484375 363.058594 220.484375 L 400.714844 220.484375 C 400.980469 220.484375 401.242188 220.589844 401.429688 220.777344 C 401.621094 220.96875 401.726562 221.226562 401.726562 221.496094 Z M 490.996094 433.945312 C 490.992188 434.503906 490.539062 434.953125 489.984375 434.953125 L 452.332031 434.953125 C 452.0625 434.953125 451.804688 434.847656 451.613281 434.660156 C 451.425781 434.472656 451.320312 434.214844 451.320312 433.945312 L 451.320312 421.09375 C 451.320312 420.53125 451.769531 420.078125 452.332031 420.078125 L 489.984375 420.078125 C 490.542969 420.082031 490.992188 420.535156 490.996094 421.09375 Z M 490.996094 400.675781 C 490.996094 401.234375 490.542969 401.6875 489.984375 401.6875 L 452.332031 401.6875 C 451.785156 401.683594 451.339844 401.246094 451.332031 400.699219 L 451.332031 387.828125 C 451.332031 387.558594 451.4375 387.300781 451.628906 387.109375 C 451.816406 386.921875 452.078125 386.8125 452.34375 386.816406 L 490 386.816406 C 490.558594 386.816406 491.011719 387.269531 491.011719 387.828125 Z M 490.996094 367.414062 C 490.992188 367.96875 490.542969 368.421875 489.984375 368.425781 L 452.332031 368.425781 C 451.769531 368.425781 451.320312 367.972656 451.320312 367.414062 L 451.320312 354.558594 C 451.320312 354 451.769531 353.546875 452.332031 353.546875 L 489.984375 353.546875 C 490.542969 353.550781 490.992188 354 490.996094 354.558594 Z M 490.996094 334.140625 C 490.996094 334.699219 490.542969 335.152344 489.984375 335.152344 L 452.332031 335.152344 C 452.0625 335.15625 451.800781 335.050781 451.613281 334.859375 C 451.421875 334.667969 451.316406 334.410156 451.320312 334.140625 L 451.320312 321.296875 C 451.316406 321.027344 451.421875 320.765625 451.613281 320.578125 C 451.800781 320.386719 452.0625 320.28125 452.332031 320.28125 L 489.984375 320.28125 C 490.542969 320.28125 490.996094 320.734375 490.996094 321.296875 Z M 490.996094 300.878906 C 490.992188 301.4375 490.542969 301.886719 489.984375 301.890625 L 452.332031 301.890625 C 451.785156 301.882812 451.34375 301.445312 451.332031 300.902344 L 451.332031 288.023438 C 451.332031 287.757812 451.441406 287.5 451.628906 287.3125 C 451.820312 287.121094 452.078125 287.015625 452.34375 287.019531 L 490 287.019531 C 490.554688 287.019531 491.007812 287.46875 491.011719 288.023438 Z M 490.996094 267.613281 C 490.992188 268.171875 490.539062 268.621094 489.984375 268.621094 L 452.332031 268.621094 C 452.0625 268.621094 451.804688 268.515625 451.613281 268.328125 C 451.425781 268.140625 451.320312 267.882812 451.320312 267.613281 L 451.320312 254.761719 C 451.320312 254.203125 451.769531 253.75 452.332031 253.75 L 489.984375 253.75 C 490.542969 253.753906 490.992188 254.203125 490.996094 254.761719 Z M 490.996094 234.34375 C 490.996094 234.902344 490.542969 235.355469 489.984375 235.355469 L 452.332031 235.355469 C 452.0625 235.359375 451.800781 235.253906 451.613281 235.0625 C 451.421875 234.871094 451.316406 234.613281 451.320312 234.34375 L 451.320312 221.496094 C 451.316406 221.226562 451.421875 220.96875 451.613281 220.777344 C 451.800781 220.589844 452.0625 220.484375 452.332031 220.484375 L 489.984375 220.484375 C 490.542969 220.484375 490.996094 220.9375 490.996094 221.496094 Z M 490.996094 234.34375 "/>
<path style=" stroke:none;fill-rule:nonzero;fill:rgb(94.901961%,94.901961%,94.901961%);fill-opacity:1;" d="M 191.847656 25.609375 L 180.214844 32.992188 L 187.273438 20.132812 C 185.273438 18.535156 182.800781 17.652344 180.242188 17.617188 L 180.058594 17.617188 C 179.25 17.628906 178.441406 17.570312 177.644531 17.4375 L 173.699219 19.96875 L 175.386719 16.890625 C 172.589844 15.914062 170.175781 14.074219 168.492188 11.636719 L 161.4375 16.140625 L 165.890625 8.027344 C 161.769531 3.070312 156.207031 0.03125 150.085938 0.03125 C 142.746094 0.03125 136.210938 4.398438 131.992188 11.203125 C 129.453125 15.363281 124.867188 17.828125 120 17.65625 L 119.609375 17.65625 C 111.507812 17.65625 104.941406 26.855469 104.941406 38.199219 C 104.941406 49.546875 111.507812 58.738281 119.609375 58.738281 C 121.390625 58.730469 123.140625 58.289062 124.714844 57.453125 C 130.296875 54.734375 136.789062 54.609375 142.46875 57.109375 C 147.273438 59.261719 152.761719 59.261719 157.566406 57.109375 C 163.199219 54.664062 169.621094 54.789062 175.15625 57.453125 C 176.71875 58.269531 178.453125 58.699219 180.214844 58.707031 C 188.316406 58.707031 194.882812 49.507812 194.882812 38.171875 C 194.941406 33.792969 193.894531 29.476562 191.847656 25.609375 Z M 191.847656 25.609375 "/>
<use xlink:href="#surface6" mask="url(#mask0)"/>
<path style=" stroke:none;fill-rule:nonzero;fill:rgb(94.901961%,94.901961%,94.901961%);fill-opacity:1;" d="M 589.058594 154.378906 L 583.242188 158.03125 L 586.765625 151.617188 C 585.769531 150.820312 584.535156 150.378906 583.257812 150.363281 L 583.167969 150.363281 C 582.765625 150.371094 582.359375 150.339844 581.960938 150.273438 L 579.996094 151.527344 L 580.835938 149.988281 C 579.445312 149.5 578.242188 148.585938 577.398438 147.378906 L 573.882812 149.628906 L 576.128906 145.578125 C 574.234375 143.136719 571.34375 141.675781 568.253906 141.601562 C 564.597656 141.601562 561.335938 143.785156 559.257812 147.175781 C 557.988281 149.253906 555.695312 150.484375 553.261719 150.394531 L 553.070312 150.394531 C 549.027344 150.394531 545.753906 154.980469 545.753906 160.636719 C 545.753906 166.292969 549.027344 170.878906 553.070312 170.878906 C 553.957031 170.875 554.832031 170.65625 555.617188 170.242188 C 558.398438 168.886719 561.636719 168.824219 564.46875 170.066406 C 566.863281 171.140625 569.605469 171.140625 572 170.066406 C 574.8125 168.851562 578.015625 168.914062 580.777344 170.242188 C 581.554688 170.648438 582.417969 170.863281 583.296875 170.863281 C 587.335938 170.863281 590.609375 166.277344 590.609375 160.621094 C 590.621094 158.445312 590.089844 156.296875 589.058594 154.378906 Z M 589.058594 154.378906 "/>
<use xlink:href="#surface9" mask="url(#mask1)"/>
<path style=" stroke:none;fill-rule:nonzero;fill:rgb(24.705882%,23.921569%,33.72549%);fill-opacity:1;" d="M 730.285156 498.957031 L 730.285156 502.707031 C 730.277344 506.742188 728.574219 510.585938 725.589844 513.300781 C 722.609375 516.011719 718.625 517.34375 714.613281 516.964844 C 685.269531 514.175781 656.0625 508.980469 626.625 509.882812 C 572.34375 511.539062 517.617188 533.765625 465.078125 520.035156 C 450.261719 516.164062 435.609375 509.433594 420.363281 510.878906 C 406.6875 512.179688 394.515625 519.921875 381.265625 523.554688 C 340.964844 534.628906 299.9375 506.640625 258.152344 507.765625 C 230.617188 508.515625 204.25 521.941406 176.742188 520.449219 C 160.800781 519.59375 145.617188 513.753906 130.066406 510.160156 C 91.347656 501.199219 51.476562 506.214844 11.578125 509.320312 C 8.671875 509.542969 5.800781 508.542969 3.65625 506.5625 C 1.515625 504.582031 0.292969 501.796875 0.285156 498.875 L 0.285156 495.691406 C 0.285156 489.890625 4.984375 485.1875 10.777344 485.1875 L 715.984375 484.617188 C 723.882812 484.632812 730.28125 491.046875 730.285156 498.957031 Z M 730.285156 498.957031 "/>
<use xlink:href="#surface12" mask="url(#mask2)"/>
<path style=" stroke:none;fill-rule:nonzero;fill:rgb(24.705882%,23.921569%,33.72549%);fill-opacity:1;" d="M 730.285156 492.089844 L 730.285156 495.84375 C 730.285156 496.363281 730.257812 496.886719 730.203125 497.402344 C 729.371094 505.210938 722.421875 510.898438 714.613281 510.160156 C 685.269531 507.359375 656.0625 502.167969 626.625 503.078125 C 572.34375 504.742188 517.617188 526.96875 465.078125 513.230469 C 450.261719 509.355469 435.609375 502.625 420.363281 504.074219 C 406.6875 505.371094 394.515625 513.078125 381.265625 516.753906 C 340.964844 527.769531 299.9375 499.78125 258.152344 500.945312 C 230.617188 501.695312 204.25 515.121094 176.742188 513.632812 C 160.800781 512.769531 145.617188 506.941406 130.066406 503.339844 C 91.355469 494.386719 51.476562 499.390625 11.578125 502.5 C 6.203125 502.914062 1.390625 499.183594 0.441406 493.871094 C 0.335938 493.269531 0.285156 492.664062 0.285156 492.054688 L 0.285156 488.84375 C 0.285156 483.039062 4.984375 478.335938 10.777344 478.335938 L 187.515625 478.1875 L 548.625 477.886719 L 715.96875 477.753906 C 723.875 477.757812 730.285156 484.175781 730.285156 492.089844 Z M 730.285156 492.089844 "/>
<path style="fill:none;stroke-width:4;stroke-linecap:butt;stroke-linejoin:miter;stroke:rgb(24.705882%,23.921569%,33.72549%);stroke-opacity:1;stroke-miterlimit:10;" d="M 1001.788264 740.762104 C 1004.790319 735.2491 1001.381736 728.502308 997.49887 723.577567 C 993.621216 718.658031 988.88881 713.58232 988.987836 707.288437 C 989.138981 698.287509 998.692395 692.977534 1006.317406 688.208968 C 1011.982742 684.668985 1017.205066 680.467858 1021.880141 675.699292 C 1023.834604 673.861624 1025.450293 671.695987 1026.659454 669.301292 C 1028.23866 665.782133 1028.191753 661.778828 1028.087515 657.921287 C 1027.764377 645.078436 1027.128525 632.251202 1026.190383 619.429174 " transform="matrix(0.749487,0,0,0.750357,-84.549589,-74.577946)"/>
<path style=" stroke:none;fill-rule:nonzero;fill:rgb(34.117647%,72.156863%,58.039216%);fill-opacity:1;" d="M 695.441406 389.691406 C 695.277344 386.105469 693.300781 382.851562 690.195312 381.0625 L 687.839844 385.726562 L 687.910156 380.078125 C 686.785156 379.746094 685.617188 379.605469 684.445312 379.664062 C 678.664062 379.953125 674.207031 384.871094 674.484375 390.660156 C 674.761719 396.449219 679.667969 400.917969 685.449219 400.652344 C 691.234375 400.382812 695.707031 395.480469 695.449219 389.691406 Z M 695.441406 389.691406 "/>
<path style=" stroke:none;fill-rule:nonzero;fill:rgb(34.117647%,72.156863%,58.039216%);fill-opacity:1;" d="M 676.679688 460.964844 C 674.40625 465.378906 669.359375 467.59375 664.574219 466.28125 C 659.792969 464.964844 656.585938 460.476562 656.882812 455.519531 C 657.179688 450.5625 660.902344 446.492188 665.808594 445.761719 C 670.714844 445.027344 675.460938 447.832031 677.191406 452.488281 L 670.617188 457.84375 L 677.851562 456.164062 C 677.847656 457.835938 677.445312 459.480469 676.679688 460.964844 Z M 676.679688 460.964844 "/>
<path style=" stroke:none;fill-rule:nonzero;fill:rgb(34.117647%,72.156863%,58.039216%);fill-opacity:1;" d="M 671.488281 440.527344 C 666.054688 440.933594 661.21875 437.109375 660.347656 431.726562 C 659.480469 426.34375 662.871094 421.191406 668.152344 419.863281 L 668.09375 424.199219 L 670.476562 419.480469 C 673.265625 419.34375 675.992188 420.324219 678.054688 422.207031 C 680.121094 424.089844 681.347656 426.71875 681.472656 429.511719 C 681.53125 430.726562 681.378906 431.941406 681.019531 433.105469 C 679.714844 437.339844 675.90625 440.304688 671.488281 440.527344 Z M 671.488281 440.527344 "/>
<path style=" stroke:none;fill-rule:nonzero;fill:rgb(34.117647%,72.156863%,58.039216%);fill-opacity:1;" d="M 697.023438 423.507812 C 691.226562 423.78125 686.308594 419.300781 686.035156 413.5 C 685.761719 407.699219 690.238281 402.773438 696.035156 402.5 C 698 402.402344 699.953125 402.863281 701.667969 403.835938 L 699.8125 408.929688 L 703.640625 405.261719 C 705.6875 407.136719 706.90625 409.75 707.035156 412.523438 C 707.085938 413.5 706.996094 414.476562 706.773438 415.425781 C 705.695312 420 701.710938 423.300781 697.023438 423.507812 Z M 697.023438 423.507812 "/>
<use xlink:href="#surface15" mask="url(#mask3)"/>
<use xlink:href="#surface18" mask="url(#mask4)"/>
<use xlink:href="#surface21" mask="url(#mask5)"/>
<use xlink:href="#surface24" mask="url(#mask6)"/>
<path style=" stroke:none;fill-rule:nonzero;fill:rgb(39.607843%,38.823529%,50.196078%);fill-opacity:1;" d="M 650.410156 476.5 C 650.410156 476.5 658.714844 476.238281 661.21875 474.457031 C 663.722656 472.679688 673.960938 470.542969 674.605469 473.398438 C 675.25 476.257812 687.085938 487.65625 677.707031 487.710938 C 668.332031 487.761719 655.972656 486.207031 653.433594 484.707031 C 650.890625 483.207031 650.410156 476.5 650.410156 476.5 Z M 650.410156 476.5 "/>
<use xlink:href="#surface27" mask="url(#mask7)"/>
<path style=" stroke:none;fill-rule:nonzero;fill:rgb(56.862745%,34.117647%,40%);fill-opacity:1;" d="M 457.921875 390.15625 C 457.921875 402.6875 464.335938 403.421875 475.03125 412.839844 C 485.726562 422.253906 492.136719 402.6875 492.136719 390.15625 C 492.136719 377.625 484.476562 367.464844 475.03125 367.464844 C 465.589844 367.464844 457.921875 377.625 457.921875 390.15625 Z M 457.921875 390.15625 "/>
<path style="fill:none;stroke-width:1;stroke-linecap:butt;stroke-linejoin:miter;stroke:rgb(24.705882%,23.921569%,33.72549%);stroke-opacity:1;stroke-miterlimit:10;" d="M 578.118069 469.30785 C 576.768187 472.582335 578.639259 476.439875 581.427626 478.600306 C 584.221205 480.760737 587.749662 481.692586 591.100914 482.811845 C 606.100764 487.809469 619.521408 498.25242 626.937943 512.230148 C 634.35969 526.207877 635.349951 543.762029 628.319097 557.947992 C 624.57174 565.522515 618.760471 571.95175 615.320616 579.640802 C 608.399212 594.940818 611.912033 613.707936 621.851128 627.248372 C 631.790223 640.788809 651.261884 643.402149 667.51259 647.598071 C 667.51259 647.598071 709.510086 680.598004 724.509936 671.602282 " transform="matrix(0.749487,0,0,0.750357,-84.549589,-74.577946)"/>
<path style=" stroke:none;fill-rule:nonzero;fill:rgb(56.862745%,34.117647%,40%);fill-opacity:1;" d="M 375.988281 471.382812 C 375.988281 471.382812 374.488281 484.136719 381.234375 484.886719 C 384.523438 485.183594 387.824219 485.292969 391.128906 485.210938 C 395.023438 485.164062 398.589844 483.019531 400.460938 479.601562 C 402.335938 476.179688 402.226562 472.015625 400.171875 468.703125 L 399.972656 468.386719 C 393.226562 457.875 375.988281 471.382812 375.988281 471.382812 Z M 375.988281 471.382812 "/>
<path style=" stroke:none;fill-rule:nonzero;fill:rgb(70.980392%,42.745098%,49.411765%);fill-opacity:1;" d="M 379.734375 460.875 C 379.734375 460.875 396.222656 482.636719 420.957031 463.128906 C 445.691406 443.617188 415.710938 434.613281 415.710938 434.613281 L 384.230469 434.613281 L 365.496094 442.867188 Z M 379.734375 460.875 "/>
<path style=" stroke:none;fill-rule:nonzero;fill:rgb(56.862745%,34.117647%,40%);fill-opacity:1;" d="M 447.1875 442.867188 C 447.1875 442.867188 454.683594 451.871094 461.429688 451.121094 C 466.839844 450.523438 477.558594 455.714844 475.78125 465.152344 C 475.28125 467.957031 473.6875 470.441406 471.347656 472.058594 C 469.007812 473.675781 466.121094 474.292969 463.324219 473.769531 C 460.402344 473.210938 457.980469 471.167969 456.933594 468.378906 C 456.933594 468.378906 432.949219 469.878906 433.699219 463.128906 C 434.449219 456.375 447.1875 442.867188 447.1875 442.867188 Z M 447.1875 442.867188 "/>
<path style=" stroke:none;fill-rule:nonzero;fill:rgb(61.176471%,36.862745%,42.745098%);fill-opacity:1;" d="M 385.378906 446.996094 C 385.378906 446.996094 395.121094 462.003906 385.378906 471.757812 C 375.636719 481.511719 365.140625 483.011719 365.140625 483.011719 C 365.140625 483.011719 368.890625 489.765625 354.648438 489.015625 C 340.410156 488.265625 335.914062 483.761719 340.410156 477.007812 C 344.90625 470.257812 356.148438 462.753906 353.898438 457.5 C 351.652344 452.246094 348.652344 440.992188 353.152344 434.238281 C 351.335938 432.734375 349.746094 430.984375 348.429688 429.03125 C 344.449219 422.96875 352.417969 416.140625 357.925781 420.859375 L 362.144531 424.484375 C 362.144531 424.484375 374.886719 413.980469 402.617188 419.230469 C 402.617188 419.230469 413.859375 418.480469 416.109375 410.226562 C 416.109375 410.226562 404.117188 383.964844 435.59375 364.457031 C 441.253906 361.996094 447.429688 360.964844 453.582031 361.453125 C 464.074219 362.203125 475.316406 362.953125 482.8125 379.460938 C 482.8125 379.460938 488.933594 390.71875 496.128906 395.054688 C 500.054688 397.5 502.71875 401.539062 503.421875 406.117188 C 505.589844 419.042969 502.84375 439.605469 458.828125 428.988281 C 458.828125 428.988281 455.457031 456.375 434.46875 467.628906 C 434.46875 467.628906 432.972656 475.132812 434.46875 477.382812 C 435.96875 479.636719 443.464844 490.140625 431.472656 489.390625 C 425.476562 489.023438 420.851562 489.015625 417.667969 489.113281 C 414.890625 489.199219 412.296875 487.742188 410.921875 485.328125 C 409.546875 482.910156 409.617188 479.933594 411.109375 477.585938 C 411.144531 477.519531 411.191406 477.453125 411.234375 477.382812 C 411.28125 477.316406 413.484375 466.878906 405.988281 458.625 L 404.492188 449.621094 Z M 385.378906 446.996094 "/>
<path style=" stroke:none;fill-rule:nonzero;fill:rgb(56.862745%,34.117647%,40%);fill-opacity:1;" d="M 500.777344 403.480469 C 500.777344 401.410156 496.414062 399.730469 491.035156 399.730469 C 485.652344 399.730469 481.289062 401.410156 481.289062 403.480469 C 481.289062 405.554688 485.652344 407.234375 491.035156 407.234375 C 496.414062 407.234375 500.777344 405.554688 500.777344 403.480469 Z M 500.777344 403.480469 "/>
<path style=" stroke:none;fill-rule:nonzero;fill:rgb(100%,100%,100%);fill-opacity:1;" d="M 234.65625 416.515625 C 232.441406 417.753906 230.101562 418.761719 227.679688 419.515625 C 223.347656 420.703125 218.683594 420.265625 214.332031 421.28125 C 212.539062 421.691406 210.582031 422.5625 210.019531 424.28125 C 209.601562 425.566406 210.019531 426.953125 210.492188 428.234375 C 215.328125 442.433594 218.242188 457.5 225.960938 470.382812 C 229.207031 475.785156 233.230469 480.675781 237.910156 484.894531 C 239.664062 486.480469 241.65625 488.03125 243.996094 488.28125 C 246.199219 488.511719 248.359375 487.546875 249.660156 485.75 C 250.957031 483.953125 251.199219 481.597656 250.292969 479.574219 C 249.59375 478.074219 248.3125 476.84375 247.480469 475.375 C 246.460938 473.574219 246.183594 471.457031 245.929688 469.371094 C 245.179688 463.300781 244.429688 456.953125 246.535156 451.195312 C 247.945312 447.339844 250.53125 444.054688 252.683594 440.5625 C 254.832031 437.074219 256.632812 433.0625 256.152344 428.988281 C 255.824219 426.203125 254.464844 423.660156 253.035156 421.25 C 251.601562 418.839844 248.761719 412.351562 245.875 411.546875 C 242.992188 410.746094 237.273438 415.171875 234.65625 416.515625 Z M 234.65625 416.515625 "/>
<path style=" stroke:none;fill-rule:nonzero;fill:rgb(100%,100%,100%);fill-opacity:1;" d="M 313.5625 465.574219 C 313.605469 466.949219 313.417969 468.320312 313 469.632812 C 312.09375 472.019531 309.851562 473.65625 308.699219 475.929688 C 307.085938 479.085938 307.820312 482.914062 308.886719 486.296875 C 309.554688 488.421875 310.429688 490.628906 312.222656 491.941406 C 313.675781 493 315.527344 493.320312 317.300781 493.570312 C 332.703125 495.699219 348.339844 494.476562 363.875 494.925781 C 366.707031 495.011719 369.707031 495.109375 372.179688 493.71875 C 374.652344 492.332031 376.183594 488.851562 374.496094 486.570312 C 372.996094 484.519531 370 484.542969 367.464844 484.414062 C 360.847656 484.082031 354.546875 481.484375 349.613281 477.054688 C 348.640625 476.226562 347.796875 475.253906 347.109375 474.171875 C 346.578125 473.214844 346.140625 472.210938 345.796875 471.171875 C 343.617188 465.265625 341.027344 459.523438 338.039062 453.980469 C 337.210938 452.425781 336.265625 450.8125 334.707031 449.980469 C 333.570312 449.46875 332.339844 449.199219 331.09375 449.195312 C 327.21875 448.9375 317.191406 447.617188 314.199219 450.632812 C 311.433594 453.410156 313.621094 462.039062 313.5625 465.574219 Z M 313.5625 465.574219 "/>
<path style=" stroke:none;fill-rule:nonzero;fill:rgb(98.431373%,74.509804%,74.509804%);fill-opacity:1;" d="M 362.121094 96.585938 C 362.121094 110.261719 351.046875 121.347656 337.390625 121.347656 C 323.730469 121.347656 312.65625 110.261719 312.65625 96.585938 C 312.65625 82.910156 323.730469 71.824219 337.390625 71.824219 C 351.046875 71.824219 362.121094 82.910156 362.121094 96.585938 Z M 362.121094 96.585938 "/>
<path style=" stroke:none;fill-rule:nonzero;fill:rgb(98.431373%,74.509804%,74.509804%);fill-opacity:1;" d="M 315.054688 117.027344 C 313.554688 120.972656 311.089844 124.671875 307.460938 126.78125 L 341.667969 133.765625 C 340.421875 128.769531 340.261719 123.5625 341.1875 118.496094 C 341.523438 117.273438 341.589844 115.996094 341.390625 114.746094 C 340.746094 112.261719 337.949219 111.058594 335.457031 110.488281 C 329.210938 109.0625 323.6875 108.300781 317.886719 105.546875 C 316.117188 108.585938 316.367188 113.519531 315.054688 117.027344 Z M 315.054688 117.027344 "/>
<path style=" stroke:none;fill-rule:nonzero;fill:rgb(24.705882%,23.921569%,33.72549%);fill-opacity:1;" d="M 307.167969 117.511719 C 314.628906 114.140625 323.214844 114.367188 330.484375 118.128906 C 334.871094 120.441406 338.503906 123.9375 342.074219 127.378906 C 345.363281 130.554688 348.871094 134.195312 349.101562 138.761719 C 349.214844 140.976562 348.527344 143.136719 348.175781 145.328125 C 346.894531 154.605469 351.613281 163.675781 359.941406 167.945312 C 362.652344 172.445312 363.214844 177.96875 363.261719 183.257812 C 363.417969 203.285156 357.109375 223.5625 361.613281 243.078125 C 362.667969 247.65625 364.308594 252.082031 365.226562 256.703125 C 366.410156 262.707031 366.347656 268.824219 366.972656 274.886719 C 367.640625 281.445312 369.105469 287.902344 371.332031 294.109375 C 369.835938 296.480469 366.746094 297.390625 363.957031 297.195312 C 361.171875 297 358.554688 295.789062 356.066406 294.515625 C 344.015625 288.339844 332.96875 280.199219 320.480469 274.945312 C 312.234375 271.472656 303.421875 269.308594 295.410156 265.296875 C 287.398438 261.28125 279.941406 254.917969 277.488281 246.296875 C 276.433594 242.546875 276.367188 238.636719 276.304688 234.757812 C 276.066406 218.421875 275.839844 201.90625 279.394531 185.984375 C 282.519531 171.921875 288.558594 158.476562 289.886719 144.128906 C 290.3125 139.453125 290.320312 134.457031 292.929688 130.5625 C 296.601562 125.015625 304.554688 123.613281 307.167969 117.511719 Z M 307.167969 117.511719 "/>
<path style=" stroke:none;fill-rule:nonzero;fill:rgb(24.705882%,23.921569%,33.72549%);fill-opacity:1;" d="M 323.320312 96.929688 C 324.78125 95.023438 327.59375 94.769531 329.925781 95.332031 C 332.253906 95.894531 334.421875 97.097656 336.746094 97.582031 C 337.828125 97.890625 338.988281 97.726562 339.945312 97.132812 C 340.851562 96.4375 341.128906 95.210938 341.324219 94.078125 C 342.144531 89.175781 342.335938 84.183594 341.894531 79.230469 C 341.773438 78.535156 341.816406 77.820312 342.027344 77.144531 C 342.613281 75.742188 344.390625 75.402344 345.835938 74.953125 C 350.757812 73.289062 353.929688 68.496094 353.53125 63.308594 C 353.5 62.097656 352.992188 60.949219 352.117188 60.109375 C 351.113281 59.292969 349.710938 59.242188 348.414062 59.226562 C 341.769531 59.175781 335.121094 59.175781 328.46875 59.226562 C 326.011719 59.226562 323.425781 59.308594 321.289062 60.539062 C 319.714844 61.445312 318.539062 62.902344 317.121094 64.050781 C 313.433594 67.050781 308.4375 67.636719 303.945312 69.167969 C 301.753906 69.792969 299.761719 70.984375 298.167969 72.621094 C 296.667969 74.332031 295.957031 76.867188 296.894531 78.9375 C 297.378906 79.800781 297.914062 80.628906 298.503906 81.421875 C 301.160156 85.660156 299.390625 91.175781 299.789062 96.152344 C 300.28125 102.378906 309.484375 112.484375 315.730469 113.957031 C 325.808594 116.3125 319.984375 101.003906 323.320312 96.929688 Z M 323.320312 96.929688 "/>
<path style=" stroke:none;fill-rule:nonzero;fill:rgb(24.705882%,23.921569%,33.72549%);fill-opacity:1;" d="M 309.359375 370.015625 C 309.996094 374.5625 310.8125 379.132812 310.59375 383.71875 C 310.289062 390.117188 307.988281 396.292969 307.558594 402.6875 C 307.238281 407.464844 307.980469 412.296875 307.3125 417.039062 C 306.886719 420.042969 305.902344 423 305.289062 426.046875 C 303.34375 435.921875 305.492188 446.164062 311.238281 454.421875 C 311.65625 455.125 312.25 455.707031 312.964844 456.105469 C 313.648438 456.355469 314.378906 456.453125 315.105469 456.390625 C 322.304688 456.238281 329.488281 455.582031 336.59375 454.421875 C 337.007812 454.472656 337.425781 454.347656 337.746094 454.078125 C 338.0625 453.808594 338.253906 453.414062 338.273438 452.996094 C 339.59375 446.246094 336.585938 439.417969 335.824219 432.550781 C 335.003906 425.21875 336.757812 417.875 338.503906 410.699219 C 339.296875 407.164062 340.285156 403.679688 341.464844 400.253906 C 342.304688 397.945312 343.324219 395.707031 344.058594 393.359375 C 345.09375 389.6875 345.722656 385.914062 345.941406 382.105469 C 346.441406 376.101562 346.707031 370.0625 346.742188 363.984375 C 346.742188 358.25 346.578125 352.480469 345.324219 346.882812 C 343.722656 339.761719 340.4375 333.144531 337.179688 326.621094 C 335.417969 326.898438 333.882812 327.929688 332.390625 328.875 C 328.195312 331.589844 323.8125 334.011719 319.28125 336.121094 C 316.238281 337.53125 310.289062 338.539062 308.367188 341.496094 C 306.449219 344.453125 307.695312 350.335938 307.835938 353.546875 C 308.089844 359.0625 308.601562 364.5625 309.359375 370.015625 Z M 309.359375 370.015625 "/>
<use xlink:href="#surface30" mask="url(#mask8)"/>
<path style=" stroke:none;fill-rule:nonzero;fill:rgb(24.705882%,23.921569%,33.72549%);fill-opacity:1;" d="M 275.953125 272.882812 C 272.671875 281.738281 277.496094 291.304688 281.695312 299.761719 C 291.992188 320.597656 299.1875 342.839844 306.308594 364.980469 C 306.839844 366.640625 307.378906 368.449219 306.78125 370.082031 C 306.269531 371.246094 305.433594 372.238281 304.375 372.941406 C 299.449219 376.695312 293.183594 378.023438 287.324219 379.980469 C 281.65625 381.875 276.230469 384.421875 271.148438 387.566406 C 266.90625 390.199219 262.90625 393.246094 258.957031 396.285156 L 246.3125 405.949219 C 245.492188 406.503906 244.773438 407.195312 244.199219 408 C 242.976562 409.914062 243.449219 412.410156 244.085938 414.601562 C 245.691406 420.398438 247.761719 426.054688 250.277344 431.515625 C 250.800781 432.664062 251.414062 433.863281 252.523438 434.464844 C 254.503906 435.523438 256.917969 434.117188 258.421875 432.453125 C 259.929688 430.789062 261.234375 428.703125 263.355469 428.019531 C 265.476562 427.335938 267.8125 428.167969 270.023438 427.859375 C 273.613281 427.351562 276.019531 424.050781 278.578125 421.511719 C 289.128906 411.144531 306.75 411.894531 318.367188 402.753906 C 320.136719 401.359375 321.746094 399.753906 323.679688 398.589844 C 325.613281 397.425781 327.871094 396.796875 329.910156 395.769531 C 336.101562 392.648438 339.996094 386.1875 342.082031 379.566406 C 344.164062 372.949219 344.765625 365.957031 346.261719 359.171875 C 347.011719 355.667969 348.054688 352.203125 348.398438 348.667969 C 348.621094 345.34375 348.550781 342.007812 348.1875 338.695312 L 344 286.808594 C 343.65625 282.585938 343.316406 278.359375 342.648438 274.171875 C 330.207031 274.617188 317.773438 275.117188 305.324219 275.269531 C 295.441406 275.320312 285.320312 276.019531 275.953125 272.882812 Z M 275.953125 272.882812 "/>
<path style=" stroke:none;fill-rule:nonzero;fill:rgb(24.705882%,23.921569%,33.72549%);fill-opacity:1;" d="M 271.351562 285.015625 C 273.039062 287.738281 277.144531 287.679688 279.972656 286.195312 C 282.796875 284.707031 285 282.195312 287.832031 280.722656 C 291.648438 278.734375 296.152344 278.808594 300.445312 278.929688 C 307.246094 279.125 314.125 279.328125 320.683594 281.179688 C 327.429688 283.109375 334.03125 286.824219 341.03125 286.082031 C 342.246094 285.953125 343.578125 285.601562 344.238281 284.582031 C 344.625 283.832031 344.808594 282.996094 344.769531 282.15625 L 344.996094 276.035156 C 345.132812 274.976562 344.964844 273.90625 344.507812 272.941406 C 343.925781 272.140625 343.121094 271.519531 342.191406 271.164062 C 332.234375 266.339844 320.886719 265.4375 309.832031 265.054688 C 304.210938 264.871094 298.585938 264.792969 292.960938 264.824219 C 288.191406 264.824219 282.464844 264.164062 277.820312 265.4375 C 271.578125 267.15625 268.1875 279.9375 271.351562 285.015625 Z M 271.351562 285.015625 "/>
<path style=" stroke:none;fill-rule:nonzero;fill:rgb(42.352941%,38.823529%,100%);fill-opacity:1;" d="M 333.867188 124.785156 C 320.816406 124.671875 309 116.050781 295.957031 115.839844 C 294.378906 115.734375 292.800781 116.007812 291.347656 116.636719 C 289.535156 117.550781 288.351562 119.320312 286.957031 120.824219 C 283.105469 125 277.511719 127.238281 273.554688 131.328125 C 269.808594 135.152344 267.769531 140.847656 269.238281 145.980469 C 270.707031 151.113281 276.238281 155.046875 281.425781 153.816406 C 283.515625 147.046875 287.828125 141.179688 293.664062 137.171875 C 296.699219 135.21875 299.898438 133.535156 303.226562 132.144531 C 309.097656 129.480469 315.644531 126.773438 321.769531 128.769531 C 324.027344 129.621094 326.15625 130.78125 328.09375 132.21875 L 338.296875 139.078125 C 337.113281 134.382812 336.039062 129.113281 333.867188 124.785156 Z M 333.867188 124.785156 "/>
<path style=" stroke:none;fill-rule:nonzero;fill:rgb(42.352941%,38.823529%,100%);fill-opacity:1;" d="M 279.925781 149.269531 C 278.195312 151.429688 280.675781 154.566406 280.308594 157.3125 C 280.054688 159.136719 278.554688 160.53125 277.925781 162.265625 C 277.296875 163.996094 277.625 166.015625 277.378906 167.9375 C 277.128906 169.3125 276.765625 170.667969 276.289062 171.980469 C 275.191406 175.910156 274.421875 179.929688 273.996094 183.988281 L 271.710938 201.066406 C 271.304688 203.632812 271.054688 206.21875 270.960938 208.816406 C 270.960938 210.761719 271.082031 212.742188 270.570312 214.617188 C 270.0625 216.492188 268.953125 218.121094 268.195312 219.871094 C 267.4375 221.617188 267.09375 223.800781 268.113281 225.445312 C 264.703125 228.28125 263.691406 233.863281 266.074219 237.609375 C 266.53125 238.191406 266.882812 238.84375 267.125 239.542969 C 267.257812 240.519531 267.09375 241.511719 266.660156 242.394531 L 264.351562 248.554688 C 263.757812 250.132812 263.601562 252.53125 265.222656 252.894531 C 263.859375 254.308594 262.796875 255.984375 262.101562 257.824219 C 261.414062 259.695312 261.726562 261.792969 262.933594 263.382812 C 263.503906 263.890625 263.992188 264.480469 264.382812 265.136719 C 264.734375 266.007812 264.425781 266.992188 264.210938 267.90625 C 263.511719 270.625 263.964844 273.511719 265.46875 275.882812 C 267.039062 278.25 269.859375 279.460938 272.65625 278.96875 C 277.273438 277.925781 281.425781 276.28125 286.078125 277.136719 C 296.105469 278.976562 306.164062 280.828125 315.878906 283.933594 C 326.957031 287.476562 337.6875 292.667969 349.277344 293.757812 C 350.042969 293.921875 350.84375 293.796875 351.523438 293.410156 C 352.113281 292.851562 352.480469 292.097656 352.558594 291.289062 L 356.148438 274.488281 C 357.59375 268.277344 358.691406 261.992188 359.4375 255.660156 C 359.851562 251.578125 359.964844 247.46875 360.082031 243.363281 L 361.003906 210.691406 C 361.449219 205.878906 360.8125 201.027344 359.148438 196.488281 L 353.839844 179.53125 C 350.84375 169.851562 343.863281 161.265625 341.390625 151.429688 C 339.824219 145.203125 338.671875 138.523438 334.464844 133.667969 C 328.46875 126.75 318.128906 125.675781 309.066406 126.863281 C 304.964844 127.402344 300.820312 128.363281 297.300781 130.457031 C 293.199219 132.910156 290.1875 136.78125 287.261719 140.570312 C 284.835938 143.6875 282.382812 146.191406 279.925781 149.269531 Z M 279.925781 149.269531 "/>
<path style=" stroke:none;fill-rule:nonzero;fill:rgb(98.431373%,74.509804%,74.509804%);fill-opacity:1;" d="M 301.089844 245.367188 C 301.839844 248.59375 303.40625 251.566406 304.367188 254.730469 C 305.96875 260.035156 305.867188 265.753906 307.4375 271.058594 C 308.113281 273.308594 309.097656 275.425781 309.574219 277.699219 C 310.707031 283.011719 309.058594 288.496094 307.011719 293.523438 C 304.964844 298.550781 302.476562 303.503906 301.8125 308.890625 C 301.347656 312.679688 302.019531 316.964844 304.9375 319.398438 C 307.972656 321.957031 312.371094 321.78125 316.320312 321.4375 C 317.738281 321.398438 319.140625 321.109375 320.457031 320.582031 C 323.457031 319.148438 324.746094 315.570312 325.457031 312.328125 C 327.816406 301.375 327.144531 290.019531 326.453125 278.832031 L 324.671875 249.574219 C 324.324219 243.949219 323.921875 238.199219 322.21875 232.789062 C 321.589844 230.824219 320.496094 226.847656 318.695312 225.585938 C 316.898438 224.328125 311.847656 224.289062 309.644531 224.183594 C 299.300781 223.703125 299.417969 238.132812 301.089844 245.367188 Z M 301.089844 245.367188 "/>
<path style=" stroke:none;fill-rule:nonzero;fill:rgb(24.705882%,23.921569%,33.72549%);fill-opacity:1;" d="M 312.527344 137.34375 C 310.421875 136.242188 307.769531 136.714844 305.730469 137.953125 C 303.691406 139.191406 302.140625 141.058594 300.625 142.90625 C 296.070312 148.472656 291.25 154.867188 291.925781 162.03125 C 292.179688 164.71875 293.207031 167.285156 293.902344 169.875 C 296.953125 181.300781 293.582031 193.398438 293.964844 205.230469 C 294.1875 212.066406 295.671875 218.789062 297.15625 225.488281 C 297.457031 226.847656 297.90625 228.421875 299.253906 228.890625 C 300.246094 229.226562 301.316406 228.785156 302.253906 228.417969 C 309.652344 225.675781 317.921875 226.71875 324.414062 231.207031 C 326.867188 229.902344 325.914062 225.773438 325.398438 223.050781 C 323.769531 214.96875 325.980469 206.632812 328.664062 198.835938 C 331.347656 191.039062 334.5625 183.257812 335.011719 175.027344 C 335.515625 165.695312 332.425781 156.59375 329.375 147.761719 C 328.710938 145.832031 327.984375 143.8125 326.4375 142.507812 C 325.117188 141.527344 323.605469 140.835938 322 140.480469 C 318.800781 139.46875 315.519531 138.914062 312.527344 137.34375 Z M 312.527344 137.34375 "/>
<path style="fill:none;stroke-width:1;stroke-linecap:butt;stroke-linejoin:miter;stroke:rgb(24.705882%,23.921569%,33.72549%);stroke-opacity:1;stroke-miterlimit:10;" d="M 667.470895 647.598071 C 667.470895 647.598071 697.470595 680.598004 724.468241 671.602282 " transform="matrix(0.749487,0,0,0.750357,-84.549589,-74.577946)"/>
<path style=" stroke:none;fill-rule:nonzero;fill:rgb(56.862745%,34.117647%,40%);fill-opacity:1;" d="M 442.929688 390.15625 C 442.929688 402.6875 436.523438 403.421875 425.828125 412.839844 C 415.132812 422.253906 408.726562 402.6875 408.726562 390.15625 C 408.726562 377.625 416.386719 367.464844 425.828125 367.464844 C 435.273438 367.464844 442.929688 377.625 442.929688 390.15625 Z M 442.929688 390.15625 "/>
<path style=" stroke:none;fill-rule:nonzero;fill:rgb(24.705882%,23.921569%,33.72549%);fill-opacity:1;" d="M 65.347656 401.757812 C 66.988281 398.894531 67.832031 395.644531 67.796875 392.347656 C 67.796875 383.84375 62.550781 376.957031 56.046875 376.957031 C 49.542969 376.957031 44.300781 383.84375 44.300781 392.347656 C 44.269531 395.644531 45.113281 398.894531 46.753906 401.757812 C 43.484375 407.601562 43.484375 414.726562 46.753906 420.574219 C 43.484375 426.421875 43.484375 433.546875 46.753906 439.394531 C 43.484375 445.242188 43.484375 452.367188 46.753906 458.210938 C 45.113281 461.074219 44.269531 464.324219 44.300781 467.621094 C 44.300781 476.125 49.546875 483.019531 56.046875 483.019531 C 62.542969 483.019531 67.796875 476.125 67.796875 467.621094 C 67.832031 464.324219 66.984375 461.074219 65.347656 458.210938 C 68.605469 452.371094 68.605469 445.257812 65.347656 439.417969 C 68.617188 433.570312 68.617188 426.445312 65.347656 420.597656 C 68.617188 414.75 68.617188 407.625 65.347656 401.777344 Z M 65.347656 401.757812 "/>
<path style=" stroke:none;fill-rule:nonzero;fill:rgb(24.705882%,23.921569%,33.72549%);fill-opacity:1;" d="M 67.761719 373.535156 C 67.761719 365.03125 62.503906 358.136719 56.015625 358.136719 C 49.53125 358.136719 44.273438 365.03125 44.273438 373.535156 C 44.273438 382.039062 49.53125 388.933594 56.015625 388.933594 C 62.503906 388.933594 67.761719 382.039062 67.761719 373.535156 Z M 67.761719 373.535156 "/>
<path style=" stroke:none;fill-rule:nonzero;fill:rgb(24.705882%,23.921569%,33.72549%);fill-opacity:1;" d="M 67.761719 354.714844 C 67.761719 346.210938 62.503906 339.320312 56.015625 339.320312 C 49.53125 339.320312 44.273438 346.210938 44.273438 354.714844 C 44.273438 363.21875 49.53125 370.113281 56.015625 370.113281 C 62.503906 370.113281 67.761719 363.21875 67.761719 354.714844 Z M 67.761719 354.714844 "/>
<path style=" stroke:none;fill-rule:nonzero;fill:rgb(34.117647%,72.156863%,58.039216%);fill-opacity:1;" d="M 12.042969 225.941406 C 10.441406 223.894531 8.976562 221.738281 7.667969 219.496094 L 38.539062 214.414062 L 5.148438 214.660156 C -1.316406 200.566406 -1.707031 184.429688 4.078125 170.039062 L 48.859375 193.300781 L 7.5625 162.886719 C 18.097656 144.621094 37.941406 133.773438 58.988281 134.785156 C 80.03125 135.792969 98.75 148.488281 107.492188 167.679688 C 116.234375 186.875 113.535156 209.347656 100.5 225.917969 C 103.003906 229.097656 105.15625 232.542969 106.914062 236.191406 L 66.847656 257.078125 L 109.566406 242.726562 C 115.660156 260.765625 112.246094 280.664062 100.492188 295.632812 C 118.644531 318.726562 116.019531 351.910156 94.457031 371.855469 C 72.898438 391.796875 39.644531 391.796875 18.085938 371.855469 C -3.476562 351.910156 -6.101562 318.726562 12.050781 295.632812 C -4.007812 275.195312 -4.007812 246.40625 12.050781 225.96875 Z M 12.042969 225.941406 "/>
<use xlink:href="#surface33" mask="url(#mask9)"/>
</g>
</svg>
