<?xml version="1.0" encoding="UTF-8"?>
<svg xmlns="http://www.w3.org/2000/svg" xmlns:xlink="http://www.w3.org/1999/xlink" width="487pt" height="351pt" viewBox="0 0 487 351" version="1.1">
<defs>
<filter id="alpha" filterUnits="objectBoundingBox" x="0%" y="0%" width="100%" height="100%">
  <feColorMatrix type="matrix" in="SourceGraphic" values="0 0 0 0 1 0 0 0 0 1 0 0 0 0 1 0 0 0 1 0"/>
</filter>
<mask id="mask0">
  <g filter="url(#alpha)">
<rect x="0" y="0" width="487" height="351" style="fill:rgb(0%,0%,0%);fill-opacity:0.0313725;stroke:none;"/>
  </g>
</mask>
<clipPath id="clip1">
  <rect x="0" y="0" width="487" height="351"/>
</clipPath>
<g id="surface5" clip-path="url(#clip1)">
<path style=" stroke:none;fill-rule:nonzero;fill:rgb(0%,0%,0%);fill-opacity:1;" d="M 113.359375 37.144531 C 110.535156 36.605469 107.617188 36.921875 104.976562 38.054688 C 101.773438 39.484375 98.113281 39.484375 94.910156 38.054688 C 91.214844 36.417969 86.589844 36.453125 83.066406 38.289062 C 82.011719 38.84375 80.84375 39.136719 79.65625 39.140625 C 74.855469 39.140625 70.859375 34.300781 70.03125 27.910156 C 70.988281 27.207031 71.804688 26.328125 72.429688 25.320312 C 75.246094 20.75 79.59375 17.832031 84.5 17.832031 C 89.40625 17.832031 93.699219 20.710938 96.5 25.207031 C 98.207031 27.96875 101.230469 29.632812 104.476562 29.59375 L 104.601562 29.59375 C 108.441406 29.597656 111.75 32.667969 113.359375 37.144531 Z M 113.359375 37.144531 "/>
</g>
<mask id="mask1">
  <g filter="url(#alpha)">
<rect x="0" y="0" width="487" height="351" style="fill:rgb(0%,0%,0%);fill-opacity:0.0313725;stroke:none;"/>
  </g>
</mask>
<clipPath id="clip2">
  <rect x="0" y="0" width="487" height="351"/>
</clipPath>
<g id="surface8" clip-path="url(#clip2)">
<path style=" stroke:none;fill-rule:nonzero;fill:rgb(0%,0%,0%);fill-opacity:1;" d="M 385.679688 113.015625 C 384.269531 112.75 382.8125 112.910156 381.496094 113.472656 C 380.707031 113.820312 379.855469 114.003906 378.996094 114.003906 C 378.132812 113.996094 377.28125 113.8125 376.496094 113.460938 C 374.601562 112.632812 372.441406 112.671875 370.585938 113.578125 C 370.0625 113.855469 369.476562 114 368.886719 114.003906 C 366.488281 114.003906 364.5 111.589844 364.085938 108.398438 C 364.5625 108.050781 364.972656 107.609375 365.285156 107.109375 C 366.683594 104.84375 368.859375 103.386719 371.285156 103.386719 C 373.710938 103.386719 375.875 104.824219 377.285156 107.066406 C 378.140625 108.453125 379.660156 109.285156 381.285156 109.253906 L 381.351562 109.253906 C 383.226562 109.253906 384.875 110.789062 385.679688 113.015625 Z M 385.679688 113.015625 "/>
</g>
<mask id="mask2">
  <g filter="url(#alpha)">
<rect x="0" y="0" width="487" height="351" style="fill:rgb(0%,0%,0%);fill-opacity:0.101961;stroke:none;"/>
  </g>
</mask>
<clipPath id="clip3">
  <rect x="0" y="0" width="487" height="351"/>
</clipPath>
<g id="surface11" clip-path="url(#clip3)">
<path style=" stroke:none;fill-rule:nonzero;fill:rgb(0%,0%,0%);fill-opacity:1;" d="M 487.191406 332.953125 L 487.191406 335.457031 C 487.183594 338.148438 486.046875 340.714844 484.058594 342.523438 C 482.070312 344.335938 479.410156 345.222656 476.734375 344.972656 C 457.160156 343.109375 437.675781 339.644531 418.035156 340.246094 C 381.824219 341.351562 345.316406 356.183594 310.265625 347.019531 C 300.378906 344.4375 290.605469 339.945312 280.433594 340.910156 C 271.308594 341.777344 263.191406 346.945312 254.351562 349.367188 C 227.464844 356.757812 200.09375 338.082031 172.21875 338.832031 C 153.851562 339.332031 136.261719 348.292969 117.910156 347.292969 C 107.273438 346.722656 97.144531 342.828125 86.769531 340.429688 C 60.941406 334.453125 34.339844 337.796875 7.726562 339.871094 C 5.785156 340.019531 3.871094 339.351562 2.441406 338.027344 C 1.011719 336.707031 0.195312 334.847656 0.191406 332.898438 L 0.191406 330.777344 C 0.191406 326.90625 3.324219 323.765625 7.191406 323.765625 L 477.648438 323.386719 C 482.921875 323.398438 487.1875 327.675781 487.191406 332.953125 Z M 487.191406 332.953125 "/>
</g>
<mask id="mask3">
  <g filter="url(#alpha)">
<rect x="0" y="0" width="487" height="351" style="fill:rgb(0%,0%,0%);fill-opacity:0.101961;stroke:none;"/>
  </g>
</mask>
<clipPath id="clip4">
  <rect x="0" y="0" width="487" height="351"/>
</clipPath>
<g id="surface14" clip-path="url(#clip4)">
<path style=" stroke:none;fill-rule:nonzero;fill:rgb(0%,0%,0%);fill-opacity:1;" d="M 463 261.914062 C 461.378906 262.09375 459.804688 262.597656 458.179688 262.699219 C 456.554688 262.800781 454.769531 262.410156 453.738281 261.140625 C 453.191406 260.460938 452.910156 259.601562 452.445312 258.855469 C 452 258.164062 451.390625 257.589844 450.675781 257.191406 C 449.515625 259.609375 449.839844 262.480469 451.503906 264.578125 C 453.167969 266.679688 455.886719 267.644531 458.5 267.066406 C 461.117188 266.484375 463.171875 264.460938 463.796875 261.851562 C 463.53125 261.867188 463.265625 261.882812 463 261.914062 Z M 463 261.914062 "/>
</g>
<mask id="mask4">
  <g filter="url(#alpha)">
<rect x="0" y="0" width="487" height="351" style="fill:rgb(0%,0%,0%);fill-opacity:0.101961;stroke:none;"/>
  </g>
</mask>
<clipPath id="clip5">
  <rect x="0" y="0" width="487" height="351"/>
</clipPath>
<g id="surface17" clip-path="url(#clip5)">
<path style=" stroke:none;fill-rule:nonzero;fill:rgb(0%,0%,0%);fill-opacity:1;" d="M 465 282.609375 C 462.539062 282.734375 460.191406 281.550781 458.824219 279.5 C 457.453125 277.445312 457.265625 274.824219 458.324219 272.59375 C 458.882812 272.96875 459.363281 273.449219 459.734375 274.011719 C 460.234375 274.765625 460.539062 275.636719 461.125 276.328125 C 462.21875 277.621094 464.085938 278.042969 465.78125 277.960938 C 467.476562 277.878906 469.109375 277.40625 470.78125 277.25 C 471.015625 277.226562 471.25 277.210938 471.488281 277.203125 C 470.777344 280.257812 468.125 282.460938 465 282.609375 Z M 465 282.609375 "/>
</g>
<mask id="mask5">
  <g filter="url(#alpha)">
<rect x="0" y="0" width="487" height="351" style="fill:rgb(0%,0%,0%);fill-opacity:0.101961;stroke:none;"/>
  </g>
</mask>
<clipPath id="clip6">
  <rect x="0" y="0" width="487" height="351"/>
</clipPath>
<g id="surface20" clip-path="url(#clip6)">
<path style=" stroke:none;fill-rule:nonzero;fill:rgb(0%,0%,0%);fill-opacity:1;" d="M 447.964844 293.964844 C 445.527344 294.089844 443.199219 292.933594 441.820312 290.910156 C 440.445312 288.890625 440.222656 286.296875 441.230469 284.070312 C 441.816406 284.445312 442.324219 284.929688 442.730469 285.496094 C 443.273438 286.269531 443.613281 287.152344 444.230469 287.863281 C 445.414062 289.1875 447.40625 289.648438 449.195312 289.609375 C 450.984375 289.566406 452.609375 289.140625 454.335938 289.011719 C 453.464844 291.839844 450.917969 293.820312 447.964844 293.964844 Z M 447.964844 293.964844 "/>
</g>
<mask id="mask6">
  <g filter="url(#alpha)">
<rect x="0" y="0" width="487" height="351" style="fill:rgb(0%,0%,0%);fill-opacity:0.101961;stroke:none;"/>
  </g>
</mask>
<clipPath id="clip7">
  <rect x="0" y="0" width="487" height="351"/>
</clipPath>
<g id="surface23" clip-path="url(#clip7)">
<path style=" stroke:none;fill-rule:nonzero;fill:rgb(0%,0%,0%);fill-opacity:1;" d="M 451.429688 307.601562 C 449.847656 311.140625 445.703125 312.726562 442.171875 311.144531 C 438.636719 309.558594 437.054688 305.410156 438.636719 301.871094 C 439.214844 302.25 439.730469 302.714844 440.175781 303.246094 C 440.84375 304.0625 441.285156 304.984375 442.054688 305.75 C 443.488281 307.15625 445.804688 307.753906 447.871094 307.792969 C 449.058594 307.800781 450.25 307.738281 451.429688 307.601562 Z M 451.429688 307.601562 "/>
</g>
<mask id="mask7">
  <g filter="url(#alpha)">
<rect x="0" y="0" width="487" height="351" style="fill:rgb(0%,0%,0%);fill-opacity:0.2;stroke:none;"/>
  </g>
</mask>
<clipPath id="clip8">
  <rect x="0" y="0" width="487" height="351"/>
</clipPath>
<g id="surface26" clip-path="url(#clip8)">
<path style=" stroke:none;fill-rule:nonzero;fill:rgb(0%,0%,0%);fill-opacity:1;" d="M 452.230469 324.769531 C 445.976562 324.816406 437.699219 323.792969 436.035156 322.765625 C 434.765625 321.992188 434.261719 319.214844 434.089844 317.933594 L 433.90625 317.933594 C 433.90625 317.933594 434.253906 322.402344 435.90625 323.441406 C 437.554688 324.476562 445.851562 325.484375 452.101562 325.445312 C 453.90625 325.445312 454.53125 324.78125 454.496094 323.832031 C 454.261719 324.414062 453.59375 324.769531 452.230469 324.769531 Z M 452.230469 324.769531 "/>
</g>
<mask id="mask8">
  <g filter="url(#alpha)">
<rect x="0" y="0" width="487" height="351" style="fill:rgb(0%,0%,0%);fill-opacity:0.101961;stroke:none;"/>
  </g>
</mask>
<clipPath id="clip9">
  <rect x="0" y="0" width="487" height="351"/>
</clipPath>
<g id="surface29" clip-path="url(#clip9)">
<path style=" stroke:none;fill-rule:nonzero;fill:rgb(0%,0%,0%);fill-opacity:1;" d="M 206.378906 246.910156 C 206.804688 249.945312 207.351562 252.996094 207.203125 256.054688 C 207 260.324219 205.464844 264.445312 205.179688 268.710938 C 204.964844 271.902344 205.460938 275.125 205.015625 278.292969 C 204.730469 280.292969 204.074219 282.265625 203.664062 284.300781 C 202.367188 290.890625 203.800781 297.726562 207.636719 303.238281 C 207.914062 303.707031 208.308594 304.09375 208.785156 304.359375 C 209.242188 304.527344 209.730469 304.59375 210.214844 304.550781 C 215.019531 304.449219 219.808594 304.007812 224.550781 303.238281 C 224.828125 303.269531 225.105469 303.1875 225.316406 303.007812 C 225.53125 302.824219 225.65625 302.566406 225.671875 302.285156 C 226.550781 297.777344 224.546875 293.222656 224.035156 288.640625 C 223.488281 283.75 224.660156 278.847656 225.824219 274.058594 C 226.351562 271.703125 227.011719 269.375 227.800781 267.089844 C 228.359375 265.546875 229.039062 264.054688 229.53125 262.488281 C 230.21875 260.039062 230.640625 257.519531 230.785156 254.976562 C 231.117188 250.972656 231.296875 246.941406 231.320312 242.886719 C 231.320312 239.058594 231.210938 235.210938 230.375 231.476562 C 229.304688 226.722656 227.113281 222.308594 224.941406 217.957031 C 223.765625 218.140625 222.738281 218.828125 221.746094 219.457031 C 218.945312 221.269531 216.023438 222.886719 213 224.292969 C 210.96875 225.234375 207 225.90625 205.71875 227.878906 C 204.441406 229.851562 205.269531 233.777344 205.363281 235.921875 C 205.535156 239.601562 205.875 243.273438 206.378906 246.910156 Z M 206.378906 246.910156 "/>
</g>
<mask id="mask9">
  <g filter="url(#alpha)">
<rect x="0" y="0" width="487" height="351" style="fill:rgb(0%,0%,0%);fill-opacity:0.101961;stroke:none;"/>
  </g>
</mask>
<clipPath id="clip10">
  <rect x="0" y="0" width="487" height="351"/>
</clipPath>
<g id="surface32" clip-path="url(#clip10)">
<path style=" stroke:none;fill-rule:nonzero;fill:rgb(0%,0%,0%);fill-opacity:1;" d="M 75.09375 174.011719 C 75.105469 182.445312 72.273438 190.636719 67.058594 197.257812 C 79.171875 212.667969 77.417969 234.8125 63.035156 248.117188 C 48.652344 261.425781 26.46875 261.425781 12.085938 248.117188 C -2.296875 234.8125 -4.050781 212.667969 8.058594 197.257812 C 3.003906 190.855469 75.09375 169.792969 75.09375 174.011719 Z M 75.09375 174.011719 "/>
</g>
</defs>
<g id="surface1">
<path style=" stroke:none;fill-rule:nonzero;fill:rgb(94.901961%,94.901961%,94.901961%);fill-opacity:1;" d="M 335.148438 138.503906 L 270.976562 138.503906 L 270.976562 124.613281 C 270.976562 122.777344 269.488281 121.289062 267.65625 121.289062 L 248.808594 121.289062 L 248.808594 106.480469 C 248.808594 105.324219 247.875 104.390625 246.71875 104.390625 L 222.445312 104.390625 C 221.289062 104.390625 220.355469 105.324219 220.355469 106.480469 L 220.355469 121.289062 L 198.199219 121.289062 C 196.367188 121.289062 194.878906 122.777344 194.878906 124.613281 L 194.878906 138.503906 L 133.683594 138.503906 C 133.3125 138.503906 133.015625 138.808594 133.015625 139.179688 L 133.015625 323.710938 C 133.015625 324.082031 133.3125 324.382812 133.683594 324.386719 L 174.355469 324.386719 C 174.726562 324.386719 175.03125 324.085938 175.03125 323.710938 L 175.03125 298.886719 C 175.03125 298.511719 175.332031 298.210938 175.703125 298.210938 L 192.886719 298.210938 C 193.257812 298.210938 193.558594 298.511719 193.558594 298.886719 L 193.558594 323.710938 C 193.558594 324.082031 193.859375 324.382812 194.230469 324.386719 L 274.59375 324.386719 C 274.964844 324.382812 275.265625 324.082031 275.269531 323.710938 L 275.269531 298.886719 C 275.269531 298.515625 275.570312 298.210938 275.941406 298.210938 L 293.121094 298.210938 C 293.492188 298.210938 293.796875 298.511719 293.796875 298.886719 L 293.796875 323.710938 C 293.796875 324.082031 294.097656 324.382812 294.46875 324.386719 L 335.140625 324.386719 C 335.511719 324.382812 335.8125 324.082031 335.816406 323.710938 L 335.816406 139.1875 C 335.816406 138.816406 335.523438 138.511719 335.148438 138.503906 Z M 167.75 289.585938 C 167.75 289.957031 167.449219 290.257812 167.078125 290.257812 L 141.960938 290.257812 C 141.78125 290.261719 141.609375 290.191406 141.484375 290.0625 C 141.355469 289.9375 141.285156 289.765625 141.285156 289.585938 L 141.285156 280.996094 C 141.285156 280.621094 141.585938 280.320312 141.960938 280.320312 L 167.09375 280.320312 C 167.464844 280.320312 167.765625 280.625 167.765625 280.996094 Z M 167.75 267.386719 C 167.75 267.566406 167.679688 267.738281 167.554688 267.863281 C 167.429688 267.992188 167.257812 268.0625 167.078125 268.0625 L 141.960938 268.0625 C 141.78125 268.0625 141.609375 267.992188 141.480469 267.867188 C 141.355469 267.738281 141.285156 267.566406 141.285156 267.386719 L 141.285156 258.796875 C 141.285156 258.617188 141.355469 258.445312 141.480469 258.320312 C 141.609375 258.191406 141.78125 258.121094 141.960938 258.121094 L 167.09375 258.121094 C 167.273438 258.121094 167.445312 258.195312 167.570312 258.320312 C 167.695312 258.449219 167.765625 258.621094 167.765625 258.796875 Z M 167.75 245.1875 C 167.75 245.5625 167.449219 245.863281 167.078125 245.867188 L 141.960938 245.867188 C 141.585938 245.867188 141.285156 245.5625 141.285156 245.1875 L 141.285156 236.597656 C 141.285156 236.222656 141.585938 235.921875 141.960938 235.921875 L 167.09375 235.921875 C 167.464844 235.921875 167.765625 236.226562 167.765625 236.597656 Z M 167.75 222.988281 C 167.75 223.167969 167.679688 223.339844 167.554688 223.464844 C 167.429688 223.59375 167.257812 223.664062 167.078125 223.664062 L 141.960938 223.664062 C 141.78125 223.664062 141.609375 223.59375 141.480469 223.46875 C 141.355469 223.339844 141.285156 223.167969 141.285156 222.988281 L 141.285156 214.402344 C 141.285156 214.222656 141.355469 214.046875 141.480469 213.921875 C 141.609375 213.792969 141.78125 213.722656 141.960938 213.722656 L 167.09375 213.722656 C 167.273438 213.722656 167.445312 213.796875 167.570312 213.921875 C 167.695312 214.050781 167.765625 214.222656 167.765625 214.402344 Z M 167.75 200.792969 C 167.75 201.164062 167.449219 201.464844 167.078125 201.46875 L 141.960938 201.46875 C 141.585938 201.46875 141.285156 201.164062 141.285156 200.792969 L 141.285156 192.199219 C 141.285156 192.019531 141.355469 191.847656 141.484375 191.722656 C 141.609375 191.597656 141.78125 191.527344 141.960938 191.527344 L 167.09375 191.527344 C 167.464844 191.527344 167.765625 191.828125 167.765625 192.199219 Z M 167.75 178.59375 C 167.75 178.964844 167.449219 179.265625 167.078125 179.265625 L 141.960938 179.265625 C 141.78125 179.265625 141.609375 179.195312 141.484375 179.070312 C 141.355469 178.945312 141.285156 178.773438 141.285156 178.59375 L 141.285156 170.003906 C 141.285156 169.628906 141.585938 169.328125 141.960938 169.328125 L 167.09375 169.328125 C 167.464844 169.328125 167.765625 169.628906 167.765625 170.003906 Z M 167.75 156.394531 C 167.75 156.570312 167.679688 156.742188 167.554688 156.871094 C 167.429688 156.996094 167.257812 157.070312 167.078125 157.070312 L 141.960938 157.070312 C 141.78125 157.070312 141.609375 157 141.480469 156.871094 C 141.355469 156.746094 141.285156 156.574219 141.285156 156.394531 L 141.285156 147.804688 C 141.285156 147.625 141.355469 147.453125 141.480469 147.324219 C 141.609375 147.199219 141.78125 147.128906 141.960938 147.128906 L 167.09375 147.128906 C 167.273438 147.128906 167.445312 147.199219 167.570312 147.328125 C 167.695312 147.453125 167.765625 147.625 167.765625 147.804688 Z M 227.304688 289.582031 C 227.304688 289.761719 227.234375 289.933594 227.105469 290.058594 C 226.980469 290.183594 226.808594 290.253906 226.628906 290.253906 L 201.511719 290.253906 C 201.140625 290.253906 200.835938 289.953125 200.835938 289.582031 L 200.835938 280.996094 C 200.835938 280.625 201.136719 280.320312 201.511719 280.320312 L 226.628906 280.320312 C 227.003906 280.320312 227.304688 280.621094 227.304688 280.996094 Z M 227.304688 267.382812 C 227.304688 267.5625 227.234375 267.734375 227.109375 267.859375 C 226.980469 267.988281 226.808594 268.058594 226.628906 268.058594 L 201.511719 268.058594 C 201.136719 268.058594 200.835938 267.753906 200.835938 267.382812 L 200.835938 258.796875 C 200.835938 258.425781 201.136719 258.121094 201.511719 258.121094 L 226.628906 258.121094 C 226.808594 258.121094 226.980469 258.191406 227.109375 258.320312 C 227.234375 258.445312 227.304688 258.617188 227.304688 258.796875 Z M 227.304688 245.183594 C 227.304688 245.558594 227.003906 245.859375 226.628906 245.859375 L 201.511719 245.859375 C 201.136719 245.859375 200.835938 245.554688 200.835938 245.183594 L 200.835938 236.597656 C 200.835938 236.226562 201.136719 235.921875 201.511719 235.921875 L 226.628906 235.921875 C 227.003906 235.921875 227.304688 236.222656 227.304688 236.597656 Z M 227.304688 222.984375 C 227.304688 223.164062 227.234375 223.335938 227.109375 223.460938 C 226.980469 223.589844 226.808594 223.660156 226.628906 223.660156 L 201.511719 223.660156 C 201.136719 223.660156 200.835938 223.355469 200.835938 222.984375 L 200.835938 214.402344 C 200.835938 214.027344 201.136719 213.722656 201.511719 213.722656 L 226.628906 213.722656 C 226.808594 213.722656 226.980469 213.792969 227.109375 213.921875 C 227.234375 214.046875 227.304688 214.222656 227.304688 214.402344 Z M 227.304688 200.785156 C 227.304688 201.160156 227.003906 201.460938 226.628906 201.460938 L 201.511719 201.460938 C 201.136719 201.460938 200.835938 201.160156 200.835938 200.785156 L 200.835938 192.199219 C 200.835938 191.828125 201.140625 191.527344 201.511719 191.527344 L 226.628906 191.527344 C 226.808594 191.527344 226.980469 191.597656 227.105469 191.722656 C 227.234375 191.847656 227.304688 192.019531 227.304688 192.199219 Z M 227.304688 178.589844 C 227.304688 178.769531 227.234375 178.941406 227.105469 179.066406 C 226.980469 179.191406 226.808594 179.261719 226.628906 179.261719 L 201.511719 179.261719 C 201.140625 179.261719 200.835938 178.960938 200.835938 178.589844 L 200.835938 170.003906 C 200.835938 169.628906 201.136719 169.328125 201.511719 169.328125 L 226.628906 169.328125 C 227.003906 169.328125 227.304688 169.628906 227.304688 170.003906 Z M 227.304688 156.386719 C 227.304688 156.566406 227.234375 156.738281 227.109375 156.867188 C 226.980469 156.996094 226.808594 157.066406 226.628906 157.0625 L 201.511719 157.0625 C 201.136719 157.0625 200.835938 156.761719 200.835938 156.386719 L 200.835938 147.804688 C 200.835938 147.433594 201.136719 147.128906 201.511719 147.128906 L 226.628906 147.128906 C 226.808594 147.128906 226.980469 147.199219 227.109375 147.324219 C 227.234375 147.453125 227.304688 147.625 227.304688 147.804688 Z M 268 289.578125 C 268 289.757812 267.929688 289.929688 267.800781 290.054688 C 267.675781 290.179688 267.503906 290.25 267.324219 290.25 L 242.203125 290.25 C 241.835938 290.25 241.53125 289.949219 241.53125 289.578125 L 241.53125 280.996094 C 241.53125 280.625 241.832031 280.320312 242.203125 280.320312 L 267.324219 280.320312 C 267.699219 280.320312 268 280.621094 268 280.996094 Z M 268 267.375 C 268 267.554688 267.929688 267.726562 267.804688 267.855469 C 267.675781 267.980469 267.503906 268.054688 267.324219 268.050781 L 242.203125 268.050781 C 241.832031 268.050781 241.53125 267.75 241.53125 267.375 L 241.53125 258.796875 C 241.53125 258.425781 241.832031 258.121094 242.203125 258.121094 L 267.324219 258.121094 C 267.503906 258.121094 267.675781 258.191406 267.804688 258.320312 C 267.929688 258.445312 268 258.617188 268 258.796875 Z M 268 245.179688 C 268 245.550781 267.699219 245.855469 267.324219 245.855469 L 242.203125 245.855469 C 241.832031 245.851562 241.53125 245.550781 241.53125 245.179688 L 241.53125 236.597656 C 241.53125 236.226562 241.832031 235.921875 242.203125 235.921875 L 267.324219 235.921875 C 267.699219 235.921875 268 236.222656 268 236.597656 Z M 268 222.976562 C 268 223.15625 267.929688 223.328125 267.804688 223.457031 C 267.675781 223.585938 267.503906 223.65625 267.324219 223.652344 L 242.203125 223.652344 C 241.832031 223.652344 241.53125 223.351562 241.53125 222.976562 L 241.53125 214.402344 C 241.53125 214.027344 241.832031 213.722656 242.203125 213.722656 L 267.324219 213.722656 C 267.503906 213.722656 267.675781 213.792969 267.804688 213.921875 C 267.929688 214.046875 268 214.222656 268 214.402344 Z M 268 200.78125 C 268 201.15625 267.699219 201.457031 267.324219 201.457031 L 242.203125 201.457031 C 241.832031 201.453125 241.53125 201.152344 241.53125 200.78125 L 241.53125 192.199219 C 241.53125 191.828125 241.835938 191.527344 242.203125 191.527344 L 267.324219 191.527344 C 267.503906 191.527344 267.675781 191.597656 267.800781 191.722656 C 267.929688 191.847656 268 192.019531 268 192.199219 Z M 268 178.585938 C 268 178.761719 267.929688 178.933594 267.800781 179.0625 C 267.675781 179.1875 267.503906 179.257812 267.324219 179.253906 L 242.203125 179.253906 C 241.835938 179.253906 241.53125 178.957031 241.53125 178.585938 L 241.53125 170.003906 C 241.53125 169.628906 241.832031 169.328125 242.203125 169.328125 L 267.324219 169.328125 C 267.699219 169.328125 268 169.628906 268 170.003906 Z M 268 156.382812 C 268 156.5625 267.929688 156.734375 267.804688 156.863281 C 267.675781 156.988281 267.503906 157.058594 267.324219 157.058594 L 242.203125 157.058594 C 241.832031 157.058594 241.53125 156.757812 241.53125 156.382812 L 241.53125 147.804688 C 241.53125 147.433594 241.832031 147.128906 242.203125 147.128906 L 267.324219 147.128906 C 267.503906 147.128906 267.675781 147.199219 267.804688 147.324219 C 267.929688 147.453125 268 147.625 268 147.804688 Z M 327.554688 289.574219 C 327.550781 289.945312 327.25 290.242188 326.878906 290.242188 L 301.761719 290.242188 C 301.582031 290.246094 301.410156 290.175781 301.28125 290.046875 C 301.15625 289.921875 301.085938 289.75 301.085938 289.574219 L 301.085938 280.996094 C 301.085938 280.621094 301.386719 280.320312 301.761719 280.320312 L 326.878906 280.320312 C 327.25 280.320312 327.550781 280.625 327.554688 280.996094 Z M 327.554688 267.371094 C 327.554688 267.746094 327.253906 268.046875 326.878906 268.046875 L 301.761719 268.046875 C 301.394531 268.042969 301.101562 267.75 301.09375 267.386719 L 301.09375 258.796875 C 301.09375 258.617188 301.164062 258.445312 301.292969 258.320312 C 301.417969 258.191406 301.589844 258.121094 301.769531 258.121094 L 326.890625 258.121094 C 327.261719 258.121094 327.566406 258.425781 327.566406 258.796875 Z M 327.554688 245.175781 C 327.550781 245.546875 327.25 245.847656 326.878906 245.851562 L 301.761719 245.851562 C 301.386719 245.851562 301.085938 245.546875 301.085938 245.175781 L 301.085938 236.597656 C 301.085938 236.222656 301.386719 235.921875 301.761719 235.921875 L 326.878906 235.921875 C 327.25 235.921875 327.550781 236.226562 327.554688 236.597656 Z M 327.554688 222.972656 C 327.554688 223.347656 327.253906 223.648438 326.878906 223.648438 L 301.761719 223.648438 C 301.582031 223.648438 301.40625 223.578125 301.28125 223.453125 C 301.15625 223.324219 301.082031 223.152344 301.085938 222.972656 L 301.085938 214.402344 C 301.082031 214.222656 301.15625 214.046875 301.28125 213.921875 C 301.40625 213.792969 301.582031 213.722656 301.761719 213.722656 L 326.878906 213.722656 C 327.253906 213.722656 327.554688 214.027344 327.554688 214.402344 Z M 327.554688 200.777344 C 327.550781 201.148438 327.25 201.449219 326.878906 201.453125 L 301.761719 201.453125 C 301.398438 201.445312 301.101562 201.15625 301.09375 200.792969 L 301.09375 192.199219 C 301.09375 192.019531 301.167969 191.847656 301.292969 191.722656 C 301.417969 191.597656 301.589844 191.527344 301.769531 191.527344 L 326.890625 191.527344 C 327.261719 191.527344 327.5625 191.828125 327.566406 192.199219 Z M 327.554688 178.578125 C 327.550781 178.949219 327.25 179.25 326.878906 179.25 L 301.761719 179.25 C 301.582031 179.25 301.410156 179.179688 301.28125 179.054688 C 301.15625 178.929688 301.085938 178.757812 301.085938 178.578125 L 301.085938 170.003906 C 301.085938 169.628906 301.386719 169.328125 301.761719 169.328125 L 326.878906 169.328125 C 327.25 169.328125 327.550781 169.628906 327.554688 170.003906 Z M 327.554688 156.378906 C 327.554688 156.75 327.253906 157.054688 326.878906 157.054688 L 301.761719 157.054688 C 301.582031 157.054688 301.40625 156.984375 301.28125 156.855469 C 301.15625 156.730469 301.082031 156.558594 301.085938 156.378906 L 301.085938 147.804688 C 301.082031 147.625 301.15625 147.453125 301.28125 147.324219 C 301.40625 147.199219 301.582031 147.128906 301.761719 147.128906 L 326.878906 147.128906 C 327.253906 147.128906 327.554688 147.433594 327.554688 147.804688 Z M 327.554688 156.378906 "/>
<path style=" stroke:none;fill-rule:nonzero;fill:rgb(94.901961%,94.901961%,94.901961%);fill-opacity:1;" d="M 127.984375 17.089844 L 120.226562 22.015625 L 124.933594 13.433594 C 123.601562 12.367188 121.949219 11.777344 120.246094 11.757812 L 120.121094 11.757812 C 119.582031 11.765625 119.042969 11.726562 118.511719 11.636719 L 115.878906 13.324219 L 117.003906 11.269531 C 115.140625 10.621094 113.527344 9.390625 112.40625 7.765625 L 107.699219 10.769531 L 110.671875 5.359375 C 107.921875 2.046875 104.210938 0.0195312 100.125 0.0195312 C 95.230469 0.0195312 90.871094 2.933594 88.054688 7.476562 C 86.359375 10.253906 83.300781 11.898438 80.054688 11.78125 L 79.796875 11.78125 C 74.390625 11.78125 70.011719 17.921875 70.011719 25.492188 C 70.011719 33.0625 74.390625 39.195312 79.796875 39.195312 C 80.980469 39.191406 82.152344 38.894531 83.199219 38.339844 C 86.921875 36.527344 91.253906 36.441406 95.046875 38.109375 C 98.25 39.542969 101.910156 39.542969 105.113281 38.109375 C 108.875 36.476562 113.15625 36.5625 116.851562 38.339844 C 117.890625 38.882812 119.050781 39.171875 120.226562 39.175781 C 125.628906 39.175781 130.011719 33.035156 130.011719 25.472656 C 130.050781 22.550781 129.351562 19.667969 127.984375 17.089844 Z M 127.984375 17.089844 "/>
<use xlink:href="#surface5" mask="url(#mask0)"/>
<path style=" stroke:none;fill-rule:nonzero;fill:rgb(94.901961%,94.901961%,94.901961%);fill-opacity:1;" d="M 392.976562 103.015625 L 389.09375 105.457031 L 391.445312 101.175781 C 390.777344 100.644531 389.957031 100.347656 389.105469 100.339844 L 389.046875 100.339844 C 388.773438 100.34375 388.503906 100.324219 388.238281 100.277344 L 386.929688 101.113281 L 387.488281 100.085938 C 386.5625 99.761719 385.757812 99.152344 385.195312 98.34375 L 382.851562 99.847656 L 384.351562 97.144531 C 383.085938 95.515625 381.15625 94.539062 379.09375 94.488281 C 376.65625 94.488281 374.480469 95.945312 373.09375 98.210938 C 372.246094 99.597656 370.71875 100.417969 369.09375 100.359375 L 368.964844 100.359375 C 366.269531 100.359375 364.085938 103.417969 364.085938 107.191406 C 364.085938 110.96875 366.269531 114.027344 368.964844 114.027344 C 369.558594 114.027344 370.140625 113.878906 370.664062 113.601562 C 372.519531 112.699219 374.679688 112.65625 376.570312 113.488281 C 378.167969 114.203125 379.996094 114.203125 381.59375 113.488281 C 383.472656 112.671875 385.605469 112.714844 387.449219 113.601562 C 387.96875 113.875 388.542969 114.015625 389.128906 114.015625 C 391.824219 114.015625 394.011719 110.957031 394.011719 107.183594 C 394.015625 105.730469 393.660156 104.296875 392.976562 103.015625 Z M 392.976562 103.015625 "/>
<use xlink:href="#surface8" mask="url(#mask1)"/>
<path style=" stroke:none;fill-rule:nonzero;fill:rgb(24.705882%,23.921569%,33.72549%);fill-opacity:1;" d="M 487.191406 332.953125 L 487.191406 335.457031 C 487.183594 338.148438 486.046875 340.714844 484.058594 342.523438 C 482.070312 344.335938 479.410156 345.222656 476.734375 344.972656 C 457.160156 343.109375 437.675781 339.644531 418.035156 340.246094 C 381.824219 341.351562 345.316406 356.183594 310.265625 347.019531 C 300.378906 344.4375 290.605469 339.945312 280.433594 340.910156 C 271.308594 341.777344 263.191406 346.945312 254.351562 349.367188 C 227.464844 356.757812 200.09375 338.082031 172.21875 338.832031 C 153.851562 339.332031 136.261719 348.292969 117.910156 347.292969 C 107.273438 346.722656 97.144531 342.828125 86.769531 340.429688 C 60.941406 334.453125 34.339844 337.796875 7.726562 339.871094 C 5.785156 340.019531 3.871094 339.351562 2.441406 338.027344 C 1.011719 336.707031 0.195312 334.847656 0.191406 332.898438 L 0.191406 330.777344 C 0.191406 326.90625 3.324219 323.765625 7.191406 323.765625 L 477.648438 323.386719 C 482.921875 323.398438 487.1875 327.675781 487.191406 332.953125 Z M 487.191406 332.953125 "/>
<use xlink:href="#surface11" mask="url(#mask2)"/>
<path style=" stroke:none;fill-rule:nonzero;fill:rgb(24.705882%,23.921569%,33.72549%);fill-opacity:1;" d="M 487.191406 328.371094 L 487.191406 330.875 C 487.1875 331.222656 487.171875 331.570312 487.136719 331.917969 C 486.582031 337.128906 481.945312 340.921875 476.734375 340.429688 C 457.160156 338.5625 437.675781 335.097656 418.035156 335.703125 C 381.824219 336.816406 345.316406 351.644531 310.265625 342.476562 C 300.378906 339.894531 290.605469 335.402344 280.433594 336.371094 C 271.308594 337.234375 263.191406 342.378906 254.351562 344.832031 C 227.464844 352.183594 200.09375 333.503906 172.21875 334.28125 C 153.851562 334.78125 136.261719 343.738281 117.910156 342.75 C 107.273438 342.171875 97.144531 338.28125 86.769531 335.878906 C 60.945312 329.90625 34.339844 333.246094 7.726562 335.316406 C 4.140625 335.59375 0.925781 333.105469 0.296875 329.558594 C 0.222656 329.160156 0.1875 328.753906 0.191406 328.347656 L 0.191406 326.203125 C 0.191406 322.332031 3.324219 319.195312 7.191406 319.195312 L 125.09375 319.09375 L 366 318.894531 L 477.640625 318.804688 C 482.914062 318.808594 487.191406 323.089844 487.191406 328.371094 Z M 487.191406 328.371094 "/>
<path style="fill:none;stroke-width:4;stroke-linecap:butt;stroke-linejoin:miter;stroke:rgb(24.705882%,23.921569%,33.72549%);stroke-opacity:1;stroke-miterlimit:10;" d="M 1001.786562 740.756319 C 1004.786562 735.248551 1001.380312 728.500365 997.4975 723.5777 C 993.6225 718.662837 988.888125 713.576343 988.989687 707.288437 C 989.138125 698.293457 998.692812 692.980723 1006.317812 688.206284 C 1011.981875 684.664461 1017.200625 680.467324 1021.880312 675.700686 C 1023.833437 673.859562 1025.450625 671.698583 1026.661562 669.303562 C 1028.239687 665.777342 1028.192812 661.78304 1028.09125 657.921361 C 1027.763125 645.080304 1027.130312 632.247049 1026.192812 619.429396 " transform="matrix(0.5,0,0,0.500713,-56.405,-49.765892)"/>
<path style=" stroke:none;fill-rule:nonzero;fill:rgb(34.117647%,72.156863%,58.039216%);fill-opacity:1;" d="M 463.945312 260.039062 C 463.835938 257.648438 462.515625 255.476562 460.445312 254.28125 L 458.875 257.398438 L 458.921875 253.625 C 458.171875 253.40625 457.390625 253.3125 456.609375 253.351562 C 452.753906 253.542969 449.78125 256.824219 449.964844 260.6875 C 450.148438 264.550781 453.421875 267.535156 457.28125 267.355469 C 461.136719 267.175781 464.121094 263.902344 463.949219 260.039062 Z M 463.945312 260.039062 "/>
<path style=" stroke:none;fill-rule:nonzero;fill:rgb(34.117647%,72.156863%,58.039216%);fill-opacity:1;" d="M 451.429688 307.601562 C 449.914062 310.546875 446.542969 312.027344 443.355469 311.148438 C 440.164062 310.269531 438.023438 307.273438 438.222656 303.96875 C 438.421875 300.660156 440.90625 297.945312 444.175781 297.457031 C 447.449219 296.96875 450.617188 298.839844 451.769531 301.945312 L 447.386719 305.519531 L 452.210938 304.398438 C 452.207031 305.515625 451.941406 306.613281 451.429688 307.601562 Z M 451.429688 307.601562 "/>
<path style=" stroke:none;fill-rule:nonzero;fill:rgb(34.117647%,72.156863%,58.039216%);fill-opacity:1;" d="M 447.964844 293.964844 C 444.339844 294.234375 441.113281 291.683594 440.535156 288.089844 C 439.953125 284.5 442.214844 281.058594 445.738281 280.175781 L 445.699219 283.066406 L 447.289062 279.917969 C 449.148438 279.828125 450.96875 280.484375 452.347656 281.738281 C 453.722656 282.996094 454.542969 284.75 454.625 286.613281 C 454.664062 287.425781 454.5625 288.234375 454.324219 289.011719 C 453.453125 291.835938 450.914062 293.816406 447.964844 293.964844 Z M 447.964844 293.964844 "/>
<path style=" stroke:none;fill-rule:nonzero;fill:rgb(34.117647%,72.156863%,58.039216%);fill-opacity:1;" d="M 465 282.609375 C 461.132812 282.789062 457.851562 279.800781 457.671875 275.929688 C 457.488281 272.054688 460.472656 268.769531 464.339844 268.585938 C 465.652344 268.523438 466.957031 268.832031 468.101562 269.480469 L 466.859375 272.878906 L 469.414062 270.429688 C 470.78125 271.683594 471.59375 273.425781 471.679688 275.277344 C 471.714844 275.929688 471.65625 276.582031 471.503906 277.214844 C 470.785156 280.265625 468.128906 282.46875 465 282.609375 Z M 465 282.609375 "/>
<use xlink:href="#surface14" mask="url(#mask3)"/>
<use xlink:href="#surface17" mask="url(#mask4)"/>
<use xlink:href="#surface20" mask="url(#mask5)"/>
<use xlink:href="#surface23" mask="url(#mask6)"/>
<path style=" stroke:none;fill-rule:nonzero;fill:rgb(39.607843%,38.823529%,50.196078%);fill-opacity:1;" d="M 433.90625 317.96875 C 433.90625 317.96875 439.445312 317.792969 441.113281 316.605469 C 442.785156 315.417969 449.613281 313.992188 450.046875 315.898438 C 450.476562 317.808594 458.371094 325.414062 452.113281 325.449219 C 445.859375 325.484375 437.613281 324.445312 435.921875 323.445312 C 434.226562 322.445312 433.90625 317.96875 433.90625 317.96875 Z M 433.90625 317.96875 "/>
<use xlink:href="#surface26" mask="url(#mask7)"/>
<path style=" stroke:none;fill-rule:nonzero;fill:rgb(56.862745%,34.117647%,40%);fill-opacity:1;" d="M 305.488281 260.351562 C 305.488281 268.710938 309.769531 269.203125 316.90625 275.488281 C 324.039062 281.769531 328.316406 268.710938 328.316406 260.351562 C 328.316406 251.988281 323.203125 245.210938 316.90625 245.210938 C 310.605469 245.210938 305.488281 251.988281 305.488281 260.351562 Z M 305.488281 260.351562 "/>
<path style="fill:none;stroke-width:1;stroke-linecap:butt;stroke-linejoin:miter;stroke:rgb(24.705882%,23.921569%,33.72549%);stroke-opacity:1;stroke-miterlimit:10;" d="M 578.1225 469.307613 C 576.770937 472.576387 578.638125 476.438066 581.427187 478.599046 C 584.21625 480.760025 587.7475 481.688389 591.099062 482.811786 C 606.099062 487.812465 619.520937 498.250699 626.942812 512.230756 C 634.356875 526.210813 635.349062 543.763898 628.317812 557.946791 C 624.567812 565.521922 618.763125 571.950252 615.317812 579.642404 C 608.40375 594.940893 611.911562 613.710991 621.849062 627.24637 C 631.786562 640.78955 651.263125 643.40301 667.513125 647.600147 C 667.513125 647.600147 709.513125 680.599947 724.513125 671.597165 " transform="matrix(0.5,0,0,0.500713,-56.405,-49.765892)"/>
<path style=" stroke:none;fill-rule:nonzero;fill:rgb(56.862745%,34.117647%,40%);fill-opacity:1;" d="M 250.828125 314.554688 C 250.828125 314.554688 249.828125 323.066406 254.328125 323.566406 C 256.523438 323.761719 258.726562 323.835938 260.929688 323.78125 C 263.527344 323.75 265.90625 322.316406 267.15625 320.035156 C 268.40625 317.753906 268.332031 314.976562 266.964844 312.765625 L 266.828125 312.554688 C 262.328125 305.539062 250.828125 314.554688 250.828125 314.554688 Z M 250.828125 314.554688 "/>
<path style=" stroke:none;fill-rule:nonzero;fill:rgb(70.980392%,42.745098%,49.411765%);fill-opacity:1;" d="M 253.328125 307.542969 C 253.328125 307.542969 264.328125 322.0625 280.828125 309.046875 C 297.328125 296.027344 277.328125 290.019531 277.328125 290.019531 L 256.328125 290.019531 L 243.828125 295.527344 Z M 253.328125 307.542969 "/>
<path style=" stroke:none;fill-rule:nonzero;fill:rgb(56.862745%,34.117647%,40%);fill-opacity:1;" d="M 298.328125 295.527344 C 298.328125 295.527344 303.328125 301.535156 307.828125 301.035156 C 311.441406 300.632812 318.589844 304.097656 317.40625 310.398438 C 317.070312 312.265625 316.007812 313.925781 314.445312 315.003906 C 312.886719 316.085938 310.960938 316.496094 309.09375 316.144531 C 307.144531 315.773438 305.527344 314.410156 304.828125 312.550781 C 304.828125 312.550781 288.828125 313.550781 289.328125 309.046875 C 289.828125 304.539062 298.328125 295.527344 298.328125 295.527344 Z M 298.328125 295.527344 "/>
<path style=" stroke:none;fill-rule:nonzero;fill:rgb(61.176471%,36.862745%,42.745098%);fill-opacity:1;" d="M 257.09375 298.28125 C 257.09375 298.28125 263.59375 308.292969 257.09375 314.804688 C 250.59375 321.3125 243.59375 322.3125 243.59375 322.3125 C 243.59375 322.3125 246.09375 326.820312 236.59375 326.320312 C 227.09375 325.820312 224.09375 322.816406 227.09375 318.308594 C 230.09375 313.800781 237.59375 308.792969 236.09375 305.289062 C 234.59375 301.785156 232.59375 294.273438 235.59375 289.769531 C 234.386719 288.765625 233.324219 287.59375 232.445312 286.292969 C 229.789062 282.246094 235.105469 277.691406 238.78125 280.839844 L 241.59375 283.257812 C 241.59375 283.257812 250.09375 276.25 268.59375 279.753906 C 268.59375 279.753906 276.09375 279.253906 277.59375 273.746094 C 277.59375 273.746094 269.59375 256.21875 290.59375 243.203125 C 294.371094 241.558594 298.492188 240.871094 302.59375 241.199219 C 309.59375 241.699219 317.09375 242.199219 322.09375 253.214844 C 322.09375 253.214844 326.179688 260.726562 330.980469 263.621094 C 333.597656 265.253906 335.375 267.949219 335.84375 271 C 337.289062 279.628906 335.460938 293.347656 306.09375 286.261719 C 306.09375 286.261719 303.84375 304.539062 289.84375 312.050781 C 289.84375 312.050781 288.84375 317.058594 289.84375 318.558594 C 290.84375 320.0625 295.84375 327.070312 287.84375 326.570312 C 283.84375 326.324219 280.761719 326.320312 278.636719 326.386719 C 276.785156 326.441406 275.050781 325.46875 274.136719 323.859375 C 273.21875 322.246094 273.265625 320.257812 274.261719 318.695312 C 274.285156 318.648438 274.316406 318.605469 274.34375 318.558594 C 274.375 318.515625 275.84375 311.546875 270.84375 306.039062 L 269.84375 300.03125 Z M 257.09375 298.28125 "/>
<path style=" stroke:none;fill-rule:nonzero;fill:rgb(56.862745%,34.117647%,40%);fill-opacity:1;" d="M 334.078125 269.242188 C 334.078125 267.859375 331.167969 266.738281 327.578125 266.738281 C 323.988281 266.738281 321.078125 267.859375 321.078125 269.242188 C 321.078125 270.625 323.988281 271.746094 327.578125 271.746094 C 331.167969 271.746094 334.078125 270.625 334.078125 269.242188 Z M 334.078125 269.242188 "/>
<path style=" stroke:none;fill-rule:nonzero;fill:rgb(100%,100%,100%);fill-opacity:1;" d="M 156.546875 277.941406 C 155.066406 278.769531 153.507812 279.4375 151.890625 279.945312 C 149 280.734375 145.890625 280.445312 142.984375 281.121094 C 141.789062 281.394531 140.484375 281.976562 140.109375 283.125 C 139.828125 283.980469 140.109375 284.90625 140.425781 285.761719 C 143.648438 295.234375 145.59375 305.289062 150.746094 313.886719 C 152.910156 317.492188 155.59375 320.753906 158.714844 323.570312 C 159.886719 324.628906 161.214844 325.664062 162.773438 325.828125 C 164.246094 325.984375 165.6875 325.339844 166.554688 324.140625 C 167.417969 322.941406 167.582031 321.371094 166.976562 320.019531 C 166.511719 319.019531 165.65625 318.199219 165.101562 317.21875 C 164.421875 316.015625 164.234375 314.601562 164.066406 313.210938 C 163.566406 309.160156 163.066406 304.925781 164.46875 301.082031 C 165.410156 298.511719 167.136719 296.316406 168.570312 293.988281 C 170.003906 291.660156 171.203125 288.980469 170.886719 286.261719 C 170.664062 284.40625 169.761719 282.707031 168.804688 281.101562 C 167.851562 279.492188 165.953125 275.160156 164.03125 274.625 C 162.105469 274.089844 158.289062 277.042969 156.546875 277.941406 Z M 156.546875 277.941406 "/>
<path style=" stroke:none;fill-rule:nonzero;fill:rgb(100%,100%,100%);fill-opacity:1;" d="M 209.183594 310.675781 C 209.214844 311.59375 209.085938 312.511719 208.808594 313.386719 C 208.203125 314.980469 206.710938 316.070312 205.941406 317.585938 C 204.863281 319.695312 205.355469 322.25 206.066406 324.507812 C 206.511719 325.925781 207.09375 327.394531 208.289062 328.273438 C 209.261719 328.980469 210.496094 329.195312 211.679688 329.359375 C 221.953125 330.78125 232.386719 329.964844 242.75 330.265625 C 244.640625 330.320312 246.640625 330.386719 248.289062 329.460938 C 249.941406 328.53125 250.960938 326.210938 249.835938 324.6875 C 248.835938 323.320312 246.835938 323.335938 245.144531 323.25 C 240.730469 323.027344 236.527344 321.292969 233.234375 318.339844 C 232.585938 317.785156 232.023438 317.136719 231.566406 316.414062 C 231.210938 315.777344 230.917969 315.105469 230.691406 314.414062 C 229.234375 310.472656 227.507812 306.640625 225.515625 302.941406 C 224.960938 301.90625 224.328125 300.828125 223.289062 300.273438 C 222.53125 299.929688 221.710938 299.75 220.878906 299.746094 C 218.296875 299.578125 211.605469 298.695312 209.609375 300.707031 C 207.765625 302.5625 209.226562 308.320312 209.183594 310.675781 Z M 209.183594 310.675781 "/>
<path style=" stroke:none;fill-rule:nonzero;fill:rgb(98.431373%,74.509804%,74.509804%);fill-opacity:1;" d="M 241.578125 64.453125 C 241.578125 73.578125 234.191406 80.976562 225.078125 80.976562 C 215.96875 80.976562 208.578125 73.578125 208.578125 64.453125 C 208.578125 55.324219 215.96875 47.929688 225.078125 47.929688 C 234.191406 47.929688 241.578125 55.324219 241.578125 64.453125 Z M 241.578125 64.453125 "/>
<path style=" stroke:none;fill-rule:nonzero;fill:rgb(98.431373%,74.509804%,74.509804%);fill-opacity:1;" d="M 210.179688 78.089844 C 209.179688 80.726562 207.535156 83.195312 205.113281 84.601562 L 227.933594 89.261719 C 227.105469 85.925781 226.996094 82.453125 227.613281 79.074219 C 227.835938 78.257812 227.882812 77.402344 227.75 76.570312 C 227.320312 74.910156 225.453125 74.109375 223.789062 73.730469 C 219.625 72.777344 215.941406 72.269531 212.070312 70.429688 C 210.890625 72.457031 211.054688 75.753906 210.179688 78.089844 Z M 210.179688 78.089844 "/>
<path style=" stroke:none;fill-rule:nonzero;fill:rgb(24.705882%,23.921569%,33.72549%);fill-opacity:1;" d="M 204.921875 78.417969 C 209.894531 76.164062 215.625 76.316406 220.476562 78.828125 C 223.398438 80.371094 225.824219 82.703125 228.203125 85 C 230.398438 87.117188 232.738281 89.546875 232.894531 92.597656 C 232.96875 94.074219 232.511719 95.515625 232.273438 96.976562 C 231.421875 103.167969 234.570312 109.222656 240.125 112.070312 C 241.933594 115.074219 242.308594 118.757812 242.339844 122.289062 C 242.445312 135.652344 238.234375 149.183594 241.238281 162.207031 C 241.945312 165.261719 243.039062 168.214844 243.648438 171.300781 C 244.441406 175.304688 244.398438 179.386719 244.816406 183.429688 C 245.261719 187.808594 246.238281 192.117188 247.726562 196.257812 C 246.726562 197.84375 244.664062 198.449219 242.804688 198.316406 C 240.945312 198.1875 239.199219 197.382812 237.539062 196.53125 C 229.5 192.410156 222.128906 186.976562 213.800781 183.472656 C 208.300781 181.152344 202.421875 179.710938 197.074219 177.03125 C 191.730469 174.351562 186.753906 170.105469 185.121094 164.355469 C 184.414062 161.851562 184.371094 159.242188 184.328125 156.652344 C 184.171875 145.753906 184.019531 134.730469 186.390625 124.105469 C 188.476562 114.722656 192.503906 105.75 193.390625 96.175781 C 193.675781 93.058594 193.679688 89.722656 195.421875 87.125 C 197.871094 83.425781 203.175781 82.488281 204.921875 78.417969 Z M 204.921875 78.417969 "/>
<path style=" stroke:none;fill-rule:nonzero;fill:rgb(24.705882%,23.921569%,33.72549%);fill-opacity:1;" d="M 215.695312 64.683594 C 216.671875 63.410156 218.546875 63.238281 220.101562 63.617188 C 221.65625 63.992188 223.101562 64.792969 224.648438 65.117188 C 225.371094 65.320312 226.148438 65.210938 226.785156 64.816406 C 227.390625 64.351562 227.574219 63.535156 227.703125 62.78125 C 228.253906 59.507812 228.382812 56.175781 228.085938 52.871094 C 228.003906 52.40625 228.035156 51.929688 228.175781 51.476562 C 228.566406 50.542969 229.75 50.316406 230.714844 50.015625 C 234 48.90625 236.113281 45.707031 235.851562 42.246094 C 235.828125 41.4375 235.488281 40.671875 234.90625 40.113281 C 234.234375 39.566406 233.300781 39.53125 232.433594 39.519531 C 228 39.488281 223.566406 39.488281 219.128906 39.519531 C 217.488281 39.519531 215.765625 39.578125 214.339844 40.398438 C 213.289062 41.003906 212.503906 41.976562 211.558594 42.742188 C 209.101562 44.742188 205.765625 45.132812 202.769531 46.15625 C 201.304688 46.574219 199.976562 47.367188 198.914062 48.460938 C 197.914062 49.601562 197.441406 51.292969 198.066406 52.675781 C 198.386719 53.25 198.746094 53.804688 199.140625 54.332031 C 200.910156 57.160156 199.730469 60.839844 199.996094 64.160156 C 200.324219 68.316406 206.464844 75.0625 210.628906 76.042969 C 217.355469 77.617188 213.46875 67.402344 215.695312 64.683594 Z M 215.695312 64.683594 "/>
<path style=" stroke:none;fill-rule:nonzero;fill:rgb(24.705882%,23.921569%,33.72549%);fill-opacity:1;" d="M 206.378906 246.910156 C 206.804688 249.945312 207.351562 252.996094 207.203125 256.054688 C 207 260.324219 205.464844 264.445312 205.179688 268.710938 C 204.964844 271.902344 205.460938 275.125 205.015625 278.292969 C 204.730469 280.292969 204.074219 282.265625 203.664062 284.300781 C 202.367188 290.890625 203.800781 297.726562 207.636719 303.238281 C 207.914062 303.707031 208.308594 304.09375 208.785156 304.359375 C 209.242188 304.527344 209.730469 304.59375 210.214844 304.550781 C 215.019531 304.449219 219.808594 304.007812 224.550781 303.238281 C 224.828125 303.269531 225.105469 303.1875 225.316406 303.007812 C 225.53125 302.824219 225.65625 302.566406 225.671875 302.285156 C 226.550781 297.777344 224.546875 293.222656 224.035156 288.640625 C 223.488281 283.75 224.660156 278.847656 225.824219 274.058594 C 226.351562 271.703125 227.011719 269.375 227.800781 267.089844 C 228.359375 265.546875 229.039062 264.054688 229.53125 262.488281 C 230.21875 260.039062 230.640625 257.519531 230.785156 254.976562 C 231.117188 250.972656 231.296875 246.941406 231.320312 242.886719 C 231.320312 239.058594 231.210938 235.210938 230.375 231.476562 C 229.304688 226.722656 227.113281 222.308594 224.941406 217.957031 C 223.765625 218.140625 222.738281 218.828125 221.746094 219.457031 C 218.945312 221.269531 216.023438 222.886719 213 224.292969 C 210.96875 225.234375 207 225.90625 205.71875 227.878906 C 204.441406 229.851562 205.269531 233.777344 205.363281 235.921875 C 205.535156 239.601562 205.875 243.273438 206.378906 246.910156 Z M 206.378906 246.910156 "/>
<use xlink:href="#surface29" mask="url(#mask8)"/>
<path style=" stroke:none;fill-rule:nonzero;fill:rgb(24.705882%,23.921569%,33.72549%);fill-opacity:1;" d="M 184.09375 182.09375 C 181.90625 188.003906 185.125 194.386719 187.925781 200.03125 C 194.796875 213.933594 199.59375 228.777344 204.34375 243.550781 C 204.699219 244.660156 205.058594 245.867188 204.660156 246.957031 C 204.320312 247.734375 203.761719 248.394531 203.054688 248.863281 C 199.769531 251.367188 195.589844 252.253906 191.679688 253.5625 C 187.898438 254.824219 184.277344 256.523438 180.890625 258.625 C 178.058594 260.382812 175.390625 262.414062 172.753906 264.441406 L 164.320312 270.890625 C 163.773438 271.257812 163.296875 271.722656 162.910156 272.257812 C 162.09375 273.535156 162.410156 275.203125 162.835938 276.664062 C 163.90625 280.53125 165.289062 284.304688 166.964844 287.949219 C 167.316406 288.714844 167.726562 289.515625 168.464844 289.917969 C 169.785156 290.625 171.394531 289.6875 172.398438 288.574219 C 173.40625 287.464844 174.273438 286.074219 175.691406 285.617188 C 177.105469 285.160156 178.664062 285.71875 180.140625 285.511719 C 182.535156 285.171875 184.140625 282.96875 185.84375 281.277344 C 192.886719 274.355469 204.640625 274.855469 212.390625 268.757812 C 213.570312 267.828125 214.644531 266.753906 215.933594 265.980469 C 217.226562 265.203125 218.730469 264.78125 220.089844 264.097656 C 224.21875 262.011719 226.820312 257.703125 228.210938 253.285156 C 229.601562 248.871094 230 244.203125 231 239.675781 C 231.5 237.339844 232.195312 235.023438 232.425781 232.667969 C 232.574219 230.449219 232.527344 228.222656 232.285156 226.011719 L 229.488281 191.386719 C 229.261719 188.570312 229.035156 185.75 228.589844 182.957031 C 220.289062 183.25 211.996094 183.585938 203.691406 183.6875 C 197.09375 183.722656 190.34375 184.1875 184.09375 182.09375 Z M 184.09375 182.09375 "/>
<path style=" stroke:none;fill-rule:nonzero;fill:rgb(24.705882%,23.921569%,33.72549%);fill-opacity:1;" d="M 181.023438 190.191406 C 182.148438 192.007812 184.890625 191.96875 186.773438 190.976562 C 188.660156 189.984375 190.128906 188.308594 192.019531 187.328125 C 194.566406 186 197.570312 186.050781 200.433594 186.128906 C 204.96875 186.261719 209.558594 186.394531 213.933594 187.632812 C 218.433594 188.917969 222.839844 191.398438 227.511719 190.902344 C 228.320312 190.816406 229.210938 190.582031 229.648438 189.902344 C 229.90625 189.402344 230.027344 188.84375 230.003906 188.285156 L 230.15625 184.199219 C 230.246094 183.492188 230.132812 182.777344 229.828125 182.132812 C 229.441406 181.597656 228.902344 181.1875 228.285156 180.949219 C 221.640625 177.726562 214.070312 177.128906 206.695312 176.871094 C 202.945312 176.75 199.191406 176.695312 195.441406 176.714844 C 192.261719 176.714844 188.441406 176.277344 185.339844 177.128906 C 181.175781 178.273438 178.914062 186.800781 181.023438 190.191406 Z M 181.023438 190.191406 "/>
<path style=" stroke:none;fill-rule:nonzero;fill:rgb(42.352941%,38.823529%,100%);fill-opacity:1;" d="M 222.730469 83.269531 C 214.023438 83.195312 206.140625 77.441406 197.441406 77.300781 C 196.386719 77.230469 195.332031 77.410156 194.363281 77.832031 C 193.15625 78.441406 192.363281 79.625 191.433594 80.625 C 188.863281 83.414062 185.136719 84.90625 182.496094 87.636719 C 179.996094 90.1875 178.636719 93.988281 179.613281 97.414062 C 180.59375 100.839844 184.285156 103.460938 187.746094 102.640625 C 189.140625 98.125 192.015625 94.210938 195.910156 91.535156 C 197.933594 90.230469 200.070312 89.109375 202.289062 88.179688 C 206.203125 86.402344 210.574219 84.59375 214.660156 85.925781 C 216.167969 86.496094 217.585938 87.269531 218.878906 88.230469 L 225.683594 92.808594 C 224.894531 89.671875 224.179688 86.15625 222.730469 83.269531 Z M 222.730469 83.269531 "/>
<path style=" stroke:none;fill-rule:nonzero;fill:rgb(42.352941%,38.823529%,100%);fill-opacity:1;" d="M 186.746094 99.605469 C 185.589844 101.050781 187.246094 103.140625 187 104.972656 C 186.828125 106.191406 185.828125 107.121094 185.410156 108.277344 C 184.988281 109.4375 185.210938 110.78125 185.046875 112.066406 C 184.878906 112.984375 184.636719 113.886719 184.320312 114.761719 C 183.585938 117.386719 183.074219 120.066406 182.789062 122.773438 L 181.265625 134.171875 C 180.992188 135.882812 180.828125 137.609375 180.765625 139.34375 C 180.765625 140.640625 180.84375 141.960938 180.503906 143.214844 C 180.164062 144.464844 179.425781 145.550781 178.921875 146.71875 C 178.414062 147.886719 178.183594 149.34375 178.863281 150.4375 C 176.589844 152.332031 175.914062 156.058594 177.503906 158.554688 C 177.808594 158.945312 178.042969 159.382812 178.203125 159.847656 C 178.292969 160.5 178.183594 161.160156 177.894531 161.75 L 176.355469 165.859375 C 175.960938 166.914062 175.855469 168.515625 176.933594 168.753906 C 176.027344 169.699219 175.316406 170.820312 174.855469 172.046875 C 174.394531 173.296875 174.605469 174.695312 175.410156 175.753906 C 175.789062 176.09375 176.117188 176.488281 176.375 176.925781 C 176.609375 177.507812 176.40625 178.164062 176.261719 178.773438 C 175.792969 180.589844 176.097656 182.515625 177.101562 184.097656 C 178.148438 185.675781 180.03125 186.484375 181.894531 186.15625 C 184.976562 185.460938 187.746094 184.363281 190.851562 184.933594 C 197.539062 186.160156 204.25 187.398438 210.730469 189.46875 C 218.121094 191.832031 225.28125 195.296875 233.011719 196.023438 C 233.519531 196.132812 234.054688 196.050781 234.511719 195.792969 C 234.902344 195.421875 235.148438 194.917969 235.199219 194.375 L 237.59375 183.164062 C 238.558594 179.023438 239.289062 174.828125 239.789062 170.601562 C 240.066406 167.878906 240.140625 165.136719 240.21875 162.394531 L 240.835938 140.59375 C 241.128906 137.382812 240.707031 134.144531 239.59375 131.117188 L 236.054688 119.800781 C 234.054688 113.339844 229.398438 107.613281 227.75 101.050781 C 226.703125 96.894531 225.933594 92.4375 223.128906 89.195312 C 219.128906 84.582031 212.230469 83.863281 206.183594 84.65625 C 203.449219 85.015625 200.683594 85.65625 198.335938 87.054688 C 195.601562 88.691406 193.589844 91.273438 191.640625 93.804688 C 190.019531 95.882812 188.386719 97.554688 186.746094 99.605469 Z M 186.746094 99.605469 "/>
<path style=" stroke:none;fill-rule:nonzero;fill:rgb(98.431373%,74.509804%,74.509804%);fill-opacity:1;" d="M 200.863281 163.734375 C 201.363281 165.886719 202.410156 167.867188 203.050781 169.980469 C 204.121094 173.523438 204.050781 177.335938 205.101562 180.878906 C 205.550781 182.378906 206.203125 183.792969 206.523438 185.308594 C 207.28125 188.855469 206.179688 192.515625 204.816406 195.867188 C 203.449219 199.222656 201.789062 202.527344 201.34375 206.125 C 201.035156 208.652344 201.484375 211.511719 203.429688 213.132812 C 205.453125 214.839844 208.390625 214.726562 211.023438 214.496094 C 211.972656 214.46875 212.90625 214.277344 213.785156 213.925781 C 215.785156 212.96875 216.644531 210.578125 217.121094 208.417969 C 218.695312 201.105469 218.246094 193.53125 217.785156 186.066406 L 216.59375 166.542969 C 216.363281 162.785156 216.09375 158.953125 214.960938 155.339844 C 214.539062 154.03125 213.808594 151.375 212.609375 150.535156 C 211.410156 149.691406 208.039062 149.667969 206.570312 149.597656 C 199.671875 149.277344 199.75 158.90625 200.863281 163.734375 Z M 200.863281 163.734375 "/>
<path style=" stroke:none;fill-rule:nonzero;fill:rgb(24.705882%,23.921569%,33.72549%);fill-opacity:1;" d="M 208.496094 91.652344 C 207.089844 90.914062 205.320312 91.230469 203.960938 92.054688 C 202.601562 92.882812 201.566406 94.128906 200.554688 95.359375 C 197.515625 99.074219 194.300781 103.34375 194.75 108.125 C 194.921875 109.917969 195.605469 111.628906 196.070312 113.355469 C 198.105469 120.980469 195.855469 129.054688 196.109375 136.949219 C 196.261719 141.511719 197.25 145.996094 198.238281 150.46875 C 198.441406 151.375 198.738281 152.425781 199.640625 152.738281 C 200.300781 152.964844 201.015625 152.667969 201.640625 152.421875 C 206.578125 150.59375 212.09375 151.289062 216.425781 154.285156 C 218.058594 153.414062 217.425781 150.660156 217.078125 148.84375 C 215.996094 143.449219 217.46875 137.886719 219.261719 132.683594 C 221.050781 127.480469 223.195312 122.289062 223.496094 116.796875 C 223.828125 110.566406 221.769531 104.492188 219.734375 98.601562 C 219.289062 97.3125 218.804688 95.964844 217.773438 95.09375 C 216.894531 94.441406 215.886719 93.980469 214.816406 93.742188 C 212.679688 93.066406 210.488281 92.695312 208.496094 91.652344 Z M 208.496094 91.652344 "/>
<path style="fill:none;stroke-width:1;stroke-linecap:butt;stroke-linejoin:miter;stroke:rgb(24.705882%,23.921569%,33.72549%);stroke-opacity:1;stroke-miterlimit:10;" d="M 667.46625 647.600147 C 667.46625 647.600147 697.46625 680.599947 724.46625 671.597165 " transform="matrix(0.5,0,0,0.500713,-56.405,-49.765892)"/>
<path style=" stroke:none;fill-rule:nonzero;fill:rgb(56.862745%,34.117647%,40%);fill-opacity:1;" d="M 295.488281 260.351562 C 295.488281 268.710938 291.214844 269.203125 284.078125 275.488281 C 276.945312 281.769531 272.671875 268.710938 272.671875 260.351562 C 272.671875 251.988281 277.78125 245.210938 284.078125 245.210938 C 290.378906 245.210938 295.488281 251.988281 295.488281 260.351562 Z M 295.488281 260.351562 "/>
<path style=" stroke:none;fill-rule:nonzero;fill:rgb(24.705882%,23.921569%,33.72549%);fill-opacity:1;" d="M 43.59375 268.09375 C 44.6875 266.183594 45.253906 264.015625 45.230469 261.8125 C 45.230469 256.140625 41.730469 251.542969 37.390625 251.542969 C 33.050781 251.542969 29.554688 256.140625 29.554688 261.8125 C 29.53125 264.015625 30.097656 266.183594 31.191406 268.09375 C 29.011719 271.992188 29.011719 276.75 31.191406 280.648438 C 29.011719 284.550781 29.011719 289.304688 31.191406 293.207031 C 29.011719 297.109375 29.011719 301.863281 31.191406 305.765625 C 30.097656 307.675781 29.53125 309.84375 29.554688 312.042969 C 29.554688 317.71875 33.054688 322.320312 37.390625 322.320312 C 41.726562 322.320312 45.230469 317.71875 45.230469 312.042969 C 45.253906 309.84375 44.6875 307.675781 43.59375 305.765625 C 45.769531 301.867188 45.769531 297.121094 43.59375 293.222656 C 45.773438 289.320312 45.773438 284.566406 43.59375 280.664062 C 45.773438 276.761719 45.773438 272.007812 43.59375 268.105469 Z M 43.59375 268.09375 "/>
<path style=" stroke:none;fill-rule:nonzero;fill:rgb(24.705882%,23.921569%,33.72549%);fill-opacity:1;" d="M 45.203125 249.261719 C 45.203125 243.585938 41.695312 238.984375 37.371094 238.984375 C 33.042969 238.984375 29.535156 243.585938 29.535156 249.261719 C 29.535156 254.933594 33.042969 259.535156 37.371094 259.535156 C 41.695312 259.535156 45.203125 254.933594 45.203125 249.261719 Z M 45.203125 249.261719 "/>
<path style=" stroke:none;fill-rule:nonzero;fill:rgb(24.705882%,23.921569%,33.72549%);fill-opacity:1;" d="M 45.203125 236.703125 C 45.203125 231.027344 41.695312 226.425781 37.371094 226.425781 C 33.042969 226.425781 29.535156 231.027344 29.535156 236.703125 C 29.535156 242.375 33.042969 246.976562 37.371094 246.976562 C 41.695312 246.976562 45.203125 242.375 45.203125 236.703125 Z M 45.203125 236.703125 "/>
<path style=" stroke:none;fill-rule:nonzero;fill:rgb(34.117647%,72.156863%,58.039216%);fill-opacity:1;" d="M 8.035156 150.769531 C 6.964844 149.402344 5.988281 147.96875 5.113281 146.46875 L 25.710938 143.078125 L 3.433594 143.242188 C -0.878906 133.839844 -1.136719 123.070312 2.71875 113.464844 L 32.59375 128.988281 L 5.046875 108.695312 C 12.074219 96.503906 25.3125 89.269531 39.351562 89.941406 C 53.390625 90.617188 65.878906 99.085938 71.710938 111.894531 C 77.542969 124.699219 75.742188 139.699219 67.046875 150.753906 C 68.714844 152.878906 70.152344 155.175781 71.324219 157.609375 L 44.59375 171.550781 L 73.09375 161.972656 C 77.160156 174.007812 74.882812 187.285156 67.039062 197.277344 C 79.152344 212.6875 77.398438 234.832031 63.015625 248.136719 C 48.632812 261.445312 26.449219 261.445312 12.066406 248.136719 C -2.316406 234.832031 -4.070312 212.6875 8.039062 197.277344 C -2.671875 183.636719 -2.671875 164.429688 8.039062 150.789062 Z M 8.035156 150.769531 "/>
<use xlink:href="#surface32" mask="url(#mask9)"/>
</g>
</svg>
